<svg width="439" height="73" viewBox="0 0 439 73" fill="none" xmlns="http://www.w3.org/2000/svg">
<g clip-path="url(#clip0_2_147)">
<path d="M0 0H72.6038V72.6038H0V0Z" fill="#515151" fill-opacity="0.59"/>
<path d="M36.3525 13.0012L45.217 18.0665C45.7271 18.3164 46.1635 18.6946 46.4833 19.164C46.7107 19.5619 46.8436 20.0067 46.8716 20.4642V28.4337C46.8909 28.9632 46.8048 29.4912 46.6184 29.9871C46.4711 30.304 46.2582 30.586 45.9936 30.8144L37.8215 35.711C37.3794 35.9977 36.8763 36.1769 36.3525 36.2344C35.7611 36.1709 35.1877 35.9931 34.6641 35.711L27.0153 31.2197C26.67 31.0567 26.3732 30.8064 26.1542 30.4936C25.8507 30.0274 25.6974 29.4794 25.7152 28.9234V20.2615C25.7097 19.8691 25.841 19.487 26.0867 19.1809C26.3446 18.7838 26.699 18.4585 27.1166 18.2354L36.3525 13.0012ZM14.5207 13.3557V16.2092H25.2087L30.1559 13.3557H14.5207ZM58.083 13.3557H42.583L47.5301 16.2092H58.083V13.3557ZM49.7927 21.95H58.083V19.0627H49.7589C49.7668 19.1526 49.7668 19.243 49.7589 19.3329L49.7927 21.95ZM22.828 19.0627H14.5207V21.95H22.828V19.0627ZM49.7927 24.7697H58.083V27.6232H49.7927V24.7697ZM14.5207 24.7697V27.6232H22.828V24.7697H14.5207ZM48.6614 32.5535L47.3613 33.3471H58.083V30.4936H49.7251C49.6972 30.8395 49.6056 31.1772 49.455 31.4898C49.2745 31.9 49.0032 32.2637 48.6614 32.5535ZM23.3851 32.0808C23.0389 31.5843 22.8452 30.9974 22.828 30.3923H14.5207V33.2458H25.023L24.4826 32.925C24.0551 32.7345 23.6789 32.4451 23.3851 32.0808ZM37.8046 39.0541H58.0661V36.2006H42.583L38.2267 38.8346C38.09 38.9151 37.9491 38.9884 37.8046 39.0541ZM29.852 36.2006H14.5207V39.1385H34.7823L34.242 38.8346L29.852 36.2006ZM57.0362 44.7611C57.3723 43.834 57.6265 42.8792 57.796 41.9076H37.754V44.7611H57.0362ZM14.8078 41.9076C14.9855 42.8773 15.2396 43.8314 15.5676 44.7611H34.8498V41.9076H14.8078ZM16.8846 47.6146C17.4282 48.6091 18.0433 49.5627 18.725 50.4681H34.9005V47.6146H16.8846ZM53.9294 50.4681C54.5995 49.5651 55.1979 48.611 55.7192 47.6146H37.754V50.4681H53.9294ZM21.207 53.3216C22.2561 54.3599 23.3852 55.314 24.584 56.1751H34.8498V53.3216H21.207ZM48.0198 56.1751C49.2147 55.3091 50.3435 54.3553 51.3967 53.3216H37.754V56.1751H48.0198ZM29.2441 59.0962C31.0422 60.1507 32.9158 61.0706 34.8498 61.8484V59.0962H29.2441ZM43.3596 59.0962H37.754V61.8484C39.6895 61.0743 41.5635 60.1542 43.3596 59.0962Z" fill="white"/>
<path d="M75.4572 0H439V72.6038H75.4572V0Z" fill="#515151"/>
<path d="M333.421 31.6756C331.778 31.9445 330.293 32.8104 329.25 34.1069C328.558 34.9512 326.717 37.906 326.717 37.906V50.8734H324.472C324.301 50.8921 324.128 50.8722 323.966 50.8152C323.804 50.7582 323.656 50.6655 323.535 50.5439C323.413 50.4224 323.321 50.2751 323.264 50.1129C323.206 49.9508 323.187 49.7779 323.205 49.607V28.5013H325.4C325.573 28.4838 325.748 28.5041 325.912 28.5609C326.076 28.6176 326.226 28.7094 326.352 28.8299C326.477 28.9503 326.575 29.0966 326.638 29.2585C326.701 29.4204 326.728 29.5941 326.717 29.7676V33.4484L327.038 32.9588C328.727 30.3754 330.685 28.5013 333.589 28.5013H333.741C333.927 28.4879 334.114 28.5174 334.287 28.5877C334.459 28.658 334.614 28.7671 334.738 28.9065C334.936 29.1482 335.039 29.455 335.025 29.7676V31.6756H333.421ZM239.036 40.3205C239.036 47.3614 234.544 51.2111 227.824 51.2111C220.834 51.2111 216.663 47.3276 216.663 40.3205V21.4773C216.651 21.3077 216.675 21.1375 216.734 20.9781C216.793 20.8188 216.886 20.674 217.006 20.5538C217.127 20.4336 217.271 20.3408 217.431 20.2816C217.59 20.2224 217.76 20.1983 217.93 20.2109H220.496V40.3205C220.496 45.7742 223.687 47.851 227.807 47.851C231.927 47.851 235.169 45.7742 235.169 40.3205V21.4773C235.156 21.3055 235.181 21.1331 235.241 20.9717C235.301 20.8103 235.395 20.6637 235.517 20.5419C235.639 20.4202 235.785 20.3261 235.947 20.266C236.108 20.206 236.28 20.1814 236.452 20.194H239.019V40.3205H239.036ZM296.274 34.2758C296.113 40.4498 293.712 46.3545 289.521 50.8903H285.688C283.442 48.9654 279.305 41.9245 279.305 34.2758V29.7676C279.29 29.5974 279.312 29.4259 279.37 29.2652C279.428 29.1044 279.521 28.9585 279.642 28.8376C279.763 28.7168 279.908 28.624 280.069 28.5659C280.23 28.5077 280.401 28.4857 280.572 28.5013H282.817V34.2758C282.671 39.4043 284.434 44.4046 287.764 48.3069C291.081 44.3965 292.842 39.4018 292.712 34.2758V29.7676C292.699 29.5981 292.723 29.4278 292.782 29.2685C292.842 29.1091 292.934 28.9644 293.055 28.8442C293.175 28.724 293.32 28.6311 293.479 28.5719C293.638 28.5127 293.809 28.4886 293.978 28.5013H296.241V34.2758H296.274ZM310.035 38.0748C313.547 38.0748 314.527 36.8085 314.527 34.5966C314.527 32.3847 312.838 31.3716 310.356 31.3716C306.506 31.3716 304.295 33.2965 304.295 37.7878V38.0748H310.035ZM300.783 42.2116V37.7878C300.701 36.5079 300.893 35.2254 301.345 34.0252C301.797 32.8251 302.499 31.7346 303.404 30.8262C304.309 29.9178 305.397 29.2122 306.596 28.756C307.794 28.2999 309.076 28.1037 310.356 28.1804C314.814 28.1804 318.005 30.1053 318.005 34.5966C318.005 38.5645 315.472 40.979 311.015 40.979H304.261V42.2116C304.261 46.3821 306.81 47.9861 310.322 47.9861C312.503 47.8095 314.65 47.3381 316.705 46.5847V48.6277C316.705 49.4551 316.62 49.7421 315.928 50.0629C314.139 50.764 312.243 51.1524 310.322 51.2111C304.885 51.2111 300.749 48.6277 300.749 42.2453M341.171 34.5966C341.171 36.6396 342.555 36.8591 344.362 37.2981L347.097 37.9566C350.575 38.7671 353.311 40.1685 353.311 44.5079C353.311 49.4551 349.022 51.2617 344.362 51.2617C342.49 51.2532 340.624 51.0609 338.79 50.6876L337.827 50.4006V48.3913C337.827 47.7328 338.283 47.4627 338.857 47.4627C338.992 47.4452 339.128 47.4452 339.263 47.4627C340.926 47.8327 342.624 48.0252 344.328 48.0368C347.84 48.0368 349.765 47.0574 349.765 44.5248C349.765 42.5999 348.076 41.7388 346.253 41.3336L342.876 40.5062C339.854 39.8139 337.608 38.0917 337.608 34.6135C337.608 30.6118 340.985 28.1973 346.236 28.1973C347.903 28.2062 349.565 28.3759 351.2 28.7039C351.53 28.7583 351.857 28.8316 352.179 28.9234V31.0339C352.179 31.6756 351.69 31.9288 351.116 31.9288C349.507 31.6586 347.883 31.495 346.253 31.4392C342.876 31.4392 341.187 32.4185 341.187 34.6641M398.139 45.1157L396.552 46.7029C395.73 47.617 394.725 48.348 393.602 48.8483C392.479 49.3487 391.264 49.6072 390.035 49.607C386.354 49.607 384.057 47.564 384.057 41.9245V29.7676C384.045 29.5981 384.069 29.4278 384.128 29.2685C384.187 29.1091 384.28 28.9644 384.4 28.8442C384.521 28.724 384.665 28.6311 384.825 28.5719C384.984 28.5127 385.154 28.4886 385.324 28.5013H387.569V42.0089C387.569 45.3859 388.971 46.5003 390.946 46.5003C392.922 46.5003 395.488 44.2546 396.755 42.9883L398.055 41.6881V29.8689C398.039 29.6987 398.061 29.5272 398.119 29.3665C398.178 29.2057 398.27 29.0598 398.391 28.9389C398.512 28.8181 398.658 28.7253 398.819 28.6672C398.979 28.6091 399.151 28.587 399.321 28.6026H401.584V48.0199C401.584 55.6686 397.076 58.5728 389.427 58.5728H385.577V56.6479C385.559 56.4757 385.579 56.3017 385.636 56.1381C385.693 55.9746 385.785 55.8256 385.906 55.7016C386.027 55.5775 386.173 55.4816 386.335 55.4204C386.497 55.3593 386.671 55.3345 386.843 55.3478H389.41C395.471 55.3478 398.038 53.4567 398.038 48.3069L398.139 45.1157ZM378.891 47.6822C379.066 47.6744 379.24 47.7035 379.403 47.7675C379.566 47.8315 379.714 47.929 379.836 48.0536C380.054 48.2999 380.169 48.6202 380.157 48.9485V50.8734H376.966C375.976 50.9673 374.977 50.8414 374.041 50.5047C373.105 50.168 372.255 49.6287 371.552 48.9254C370.849 48.2221 370.31 47.3722 369.973 46.4364C369.636 45.5005 369.51 44.5018 369.604 43.5117V23.3852H371.85C372.019 23.3726 372.19 23.3967 372.349 23.4559C372.508 23.5151 372.653 23.6079 372.773 23.7281C372.894 23.8483 372.986 23.9931 373.046 24.1524C373.105 24.3118 373.129 24.482 373.116 24.6516V28.5013H378.182C378.352 28.4825 378.525 28.5024 378.688 28.5594C378.85 28.6165 378.997 28.7092 379.119 28.8307C379.24 28.9523 379.333 29.0995 379.39 29.2617C379.447 29.4238 379.467 29.5967 379.448 29.7676V31.6924H373.15V43.5117C373.074 44.0496 373.118 44.5976 373.28 45.1162C373.442 45.6348 373.717 46.111 374.086 46.5101C374.454 46.9093 374.907 47.2216 375.411 47.4243C375.915 47.627 376.457 47.7151 377 47.6822H378.891ZM273.835 22.7774C273.85 22.9476 273.828 23.1191 273.77 23.2798C273.712 23.4405 273.619 23.5865 273.498 23.7073C273.377 23.8282 273.231 23.921 273.071 23.9791C272.91 24.0372 272.739 24.0593 272.568 24.0437H270.306V21.4773C270.293 21.3046 270.317 21.1312 270.378 20.9692C270.44 20.8073 270.536 20.6607 270.66 20.5399C270.784 20.4191 270.933 20.327 271.096 20.2702C271.26 20.2133 271.434 20.1931 271.606 20.2109H273.818V22.7774H273.835ZM273.835 49.607V50.8734H271.623C271.45 50.8885 271.275 50.8659 271.112 50.807C270.948 50.7481 270.8 50.6544 270.676 50.5323C270.552 50.4103 270.457 50.2628 270.396 50.1001C270.335 49.9374 270.31 49.7634 270.323 49.5901V31.6924H267.824C267.652 31.7181 267.476 31.703 267.31 31.6484C267.145 31.5939 266.995 31.5013 266.872 31.3782C266.749 31.2551 266.656 31.1048 266.601 30.9395C266.547 30.7741 266.532 30.5983 266.557 30.4261V28.5013H272.568C272.739 28.4857 272.91 28.5077 273.071 28.5659C273.231 28.624 273.377 28.7168 273.498 28.8376C273.619 28.9585 273.712 29.1044 273.77 29.2652C273.828 29.4259 273.85 29.5974 273.835 29.7676V49.607ZM363.88 22.7774C363.896 22.9476 363.874 23.1191 363.816 23.2798C363.758 23.4405 363.665 23.5865 363.544 23.7073C363.423 23.8282 363.277 23.921 363.116 23.9791C362.956 24.0372 362.784 24.0593 362.614 24.0437H360.368V21.4773C360.355 21.3046 360.38 21.1312 360.441 20.9692C360.502 20.8073 360.598 20.6607 360.722 20.5399C360.846 20.4191 360.995 20.327 361.159 20.2702C361.322 20.2133 361.496 20.1931 361.668 20.2109H363.88V22.7774ZM363.88 49.607V50.8734H361.668C361.495 50.8885 361.321 50.8659 361.158 50.807C360.994 50.7481 360.845 50.6544 360.722 50.5323C360.598 50.4103 360.502 50.2628 360.441 50.1001C360.38 49.9374 360.355 49.7634 360.368 49.5901V31.6924H357.954C357.782 31.7181 357.606 31.703 357.44 31.6484C357.275 31.5939 357.125 31.5013 357.002 31.3782C356.879 31.2551 356.786 31.1048 356.732 30.9395C356.677 30.7741 356.662 30.5983 356.688 30.4261V28.5013H362.698C362.869 28.4857 363.04 28.5077 363.201 28.5659C363.362 28.624 363.508 28.7168 363.628 28.8376C363.749 28.9585 363.842 29.1044 363.9 29.2652C363.958 29.4259 363.98 29.5974 363.965 29.7676L363.88 49.607ZM248.288 32.6718L249.892 31.0846C250.692 30.1783 251.673 29.451 252.773 28.9505C253.873 28.4501 255.066 28.1876 256.275 28.1804C259.787 28.1804 262.319 30.1053 262.319 35.8629V50.8734H260.108C259.935 50.8912 259.761 50.871 259.598 50.8141C259.434 50.7573 259.285 50.6652 259.161 50.5444C259.037 50.4236 258.941 50.277 258.88 50.115C258.819 49.9531 258.794 49.7796 258.807 49.607V35.8629C258.807 32.3509 257.203 31.3716 255.329 31.3716C253.084 31.3716 250.821 33.6173 249.555 34.8836L248.288 36.1838V50.8734H246.043C245.872 50.8889 245.701 50.8669 245.54 50.8087C245.379 50.7506 245.233 50.6578 245.113 50.537C244.992 50.4161 244.899 50.2702 244.841 50.1095C244.783 49.9488 244.761 49.7772 244.776 49.607V28.5013H246.988C247.16 28.4834 247.334 28.5037 247.498 28.5605C247.661 28.6173 247.81 28.7094 247.935 28.8302C248.059 28.951 248.154 29.0976 248.216 29.2596C248.277 29.4216 248.302 29.595 248.288 29.7676V32.6718ZM133.152 46.7029L131.565 48.3913C130.752 49.2921 129.76 50.0128 128.652 50.5071C127.544 51.0015 126.345 51.2585 125.132 51.2617C121.62 51.2617 119.087 49.3369 119.087 43.5623V29.7845C119.075 29.615 119.099 29.4447 119.158 29.2853C119.217 29.126 119.31 28.9813 119.43 28.8611C119.55 28.7409 119.695 28.648 119.854 28.5888C120.014 28.5296 120.184 28.5055 120.354 28.5181H122.599V43.5286C122.599 47.0574 124.288 48.0368 126.128 48.0368C128.323 48.0368 130.586 45.7911 131.852 44.5248L133.152 43.2415V29.7338C133.137 29.5636 133.159 29.3921 133.217 29.2314C133.275 29.0707 133.368 28.9247 133.488 28.8039C133.609 28.683 133.755 28.5902 133.916 28.5321C134.077 28.474 134.248 28.4519 134.418 28.4675H136.664V49.5733C136.677 49.7459 136.653 49.9193 136.591 50.0813C136.53 50.2433 136.434 50.3898 136.31 50.5106C136.186 50.6314 136.037 50.7235 135.874 50.7803C135.71 50.8372 135.536 50.8574 135.364 50.8396H133.152V46.7029ZM152.637 31.6924C150.995 31.9614 149.51 32.8272 148.466 34.1238C147.774 34.9681 145.917 37.906 145.917 37.906V50.8734H143.671C143.501 50.8889 143.329 50.8669 143.169 50.8087C143.008 50.7506 142.862 50.6578 142.741 50.537C142.62 50.4161 142.528 50.2702 142.469 50.1095C142.411 49.9488 142.389 49.7772 142.405 49.607V28.5181H144.617C144.79 28.503 144.964 28.5256 145.128 28.5845C145.291 28.6434 145.44 28.7371 145.563 28.8592C145.687 28.9812 145.783 29.1287 145.844 29.2914C145.905 29.4541 145.93 29.6281 145.917 29.8014V33.4822L146.255 32.9926C147.943 30.4092 149.885 28.535 152.789 28.535H152.958C153.139 28.5245 153.321 28.5539 153.49 28.6209C153.659 28.688 153.812 28.7912 153.937 28.9234C154.134 29.1725 154.236 29.4839 154.224 29.8014V31.7093L152.637 31.6924ZM167.04 47.6991C167.215 47.6868 167.391 47.7138 167.554 47.778C167.718 47.8423 167.865 47.9422 167.985 48.0705C168.206 48.3149 168.321 48.6365 168.306 48.9654V50.8734H165.115C164.125 50.9673 163.126 50.8414 162.19 50.5047C161.254 50.168 160.404 49.6287 159.701 48.9254C158.998 48.2221 158.458 47.3722 158.122 46.4364C157.785 45.5005 157.659 44.5018 157.753 43.5117V23.4021H159.999C160.168 23.3895 160.338 23.4136 160.498 23.4728C160.657 23.532 160.802 23.6248 160.922 23.745C161.042 23.8652 161.135 24.0099 161.194 24.1693C161.253 24.3287 161.278 24.4989 161.265 24.6684V28.5181H166.33C166.501 28.5026 166.672 28.5246 166.833 28.5828C166.994 28.6409 167.139 28.7337 167.26 28.8545C167.381 28.9754 167.474 29.1213 167.532 29.282C167.59 29.4428 167.612 29.6143 167.597 29.7845V31.6924H161.265V43.5117C161.189 44.0503 161.234 44.599 161.396 45.1183C161.557 45.6377 161.832 46.1147 162.2 46.5151C162.568 46.9155 163.021 47.2294 163.525 47.4341C164.029 47.6388 164.572 47.7293 165.115 47.6991H167.04ZM178.977 22.7774C178.995 22.9489 178.975 23.1223 178.918 23.2851C178.861 23.448 178.769 23.5961 178.648 23.7189C178.527 23.8417 178.38 23.936 178.218 23.9951C178.055 24.0542 177.882 24.0766 177.711 24.0606H175.431V21.4773C175.42 21.3038 175.448 21.1301 175.511 20.9681C175.574 20.8062 175.672 20.66 175.797 20.5395C175.922 20.419 176.072 20.3273 176.236 20.2705C176.401 20.2138 176.575 20.1934 176.748 20.2109H178.977V22.7774ZM178.977 49.607V50.8734H176.765C176.592 50.8908 176.417 50.8705 176.253 50.8137C176.089 50.757 175.939 50.6652 175.814 50.5448C175.688 50.4243 175.591 50.2781 175.528 50.1161C175.465 49.9542 175.437 49.7805 175.448 49.607V31.7093H172.966C172.793 31.732 172.617 31.7142 172.452 31.6575C172.287 31.6007 172.137 31.5065 172.014 31.3822C171.891 31.2579 171.799 31.1069 171.745 30.9411C171.69 30.7752 171.675 30.5989 171.7 30.4261V28.5013H177.711C177.881 28.4857 178.052 28.5077 178.213 28.5659C178.374 28.624 178.52 28.7168 178.641 28.8376C178.761 28.9585 178.854 29.1044 178.912 29.2652C178.97 29.4259 178.993 29.5974 178.977 29.7676V49.607ZM188.213 32.6886L189.901 31.0846C190.703 30.1816 191.686 29.4566 192.785 28.9564C193.884 28.4562 195.076 28.1918 196.284 28.1804C199.796 28.1804 202.328 30.1053 202.328 35.8798V50.8734H200.116C199.944 50.8912 199.77 50.871 199.607 50.8141C199.443 50.7573 199.294 50.6652 199.17 50.5444C199.046 50.4236 198.95 50.277 198.889 50.115C198.828 49.9531 198.803 49.7796 198.816 49.607V35.8798C198.816 32.3509 197.128 31.3716 195.338 31.3716C193.092 31.3716 190.83 33.6173 189.564 34.8836L188.297 36.2006V50.8734H186.052C185.881 50.8889 185.71 50.8669 185.549 50.8087C185.388 50.7506 185.242 50.6578 185.122 50.537C185.001 50.4161 184.908 50.2702 184.85 50.1095C184.792 49.9488 184.77 49.7772 184.785 49.607V28.5013H186.997C187.169 28.4834 187.343 28.5037 187.507 28.5605C187.67 28.6173 187.819 28.7094 187.943 28.8302C188.068 28.951 188.163 29.0976 188.225 29.2596C188.286 29.4216 188.311 29.595 188.297 29.7676L188.213 32.6886ZM106.593 23.2333C107.79 23.2195 108.984 23.3384 110.155 23.5878C111.123 23.8515 112.075 24.1671 113.009 24.5334C113.192 24.6059 113.386 24.6459 113.583 24.6516C113.988 24.6516 114.275 24.3983 114.275 23.8411V21.3591C114.023 21.2354 113.764 21.1282 113.498 21.0383C112.547 20.701 111.57 20.4412 110.577 20.2616H110.409C109.913 20.1575 109.411 20.0898 108.906 20.0589H107.352C98.4036 20.0589 92.6628 24.8373 92.6628 33.7861V37.6358C92.6628 45.6054 96.7995 51.3799 106.17 51.3799H108.095C109.994 51.3146 111.87 50.9441 113.65 50.2824C113.988 50.1642 114.478 49.9447 114.478 49.9447V47.6146C114.478 47.0406 114.191 46.7873 113.769 46.7873C113.573 46.8037 113.38 46.8434 113.194 46.9055C111.564 47.478 109.856 47.7969 108.129 47.851H105.985C99.8894 47.851 96.3774 44.1702 96.3774 37.467V33.6173C96.3774 26.1374 100.869 23.2333 106.593 23.2333Z" fill="white"/>
</g>
<defs>
<clipPath id="clip0_2_147">
<rect width="439" height="72.6038" fill="white"/>
</clipPath>
</defs>
</svg>
