<svg width="241" height="128" viewBox="0 0 241 128" fill="none" xmlns="http://www.w3.org/2000/svg">
<path fill-rule="evenodd" clip-rule="evenodd" d="M190.142 49.5726C193.873 49.0769 197.354 48.8291 200.836 49.077L205.312 30.4873C204.566 30.4873 204.069 30.4871 203.323 30.2392C196.608 29.7435 189.894 29.7433 183.428 30.7348C182.931 30.7348 182.185 30.9829 181.687 30.9829C172.983 32.4701 164.528 34.9486 157.067 38.9144L165.523 56.5129C172.486 53.0428 180.941 50.8119 190.142 49.5726Z" fill="#515151" fill-opacity="0.2"/>
<path fill-rule="evenodd" clip-rule="evenodd" d="M183.179 22.3076C174.724 22.5555 166.766 23.7945 159.057 25.7774C158.311 26.0253 157.565 26.273 156.819 26.273C147.617 28.9995 139.162 33.2136 131.701 38.4187L133.691 41.641L134.934 43.8715L142.395 56.2647C142.892 56.0168 143.39 55.5213 143.887 55.2735C144.136 55.0256 144.384 55.0251 144.633 54.7773C145.628 54.0337 146.374 53.5381 147.369 53.0423C151.348 50.5637 156.072 48.333 160.797 46.8458L156.819 38.9143C164.279 34.2049 172.735 30.7346 181.687 28.7517C182.433 28.5038 182.931 28.5039 183.677 28.2561L185.418 22.3076C184.92 22.3076 183.925 22.3076 183.179 22.3076Z" fill="#515151" fill-opacity="0.4"/>
<path fill-rule="evenodd" clip-rule="evenodd" d="M158.559 16.3585C149.855 16.8543 141.152 18.5894 133.194 20.8202C132.448 21.0681 131.701 21.316 130.955 21.5639C119.764 25.2818 109.568 30.9829 100.865 37.9231L102.605 40.4017L104.098 42.3841L114.045 56.5128C114.542 56.0171 115.039 55.7692 115.537 55.2735C115.785 55.0256 116.034 55.0251 116.034 54.7773C117.277 53.7858 118.521 52.7945 120.013 51.803C124.738 48.5808 129.712 46.1026 134.934 44.1197L133.691 41.8885L131.701 38.6662C138.913 32.4696 147.617 27.5124 157.316 23.7944C158.062 23.5466 159.057 23.2989 159.803 22.8032L161.543 16.111C160.549 16.111 159.554 16.3585 158.559 16.3585Z" fill="#515151" fill-opacity="0.6"/>
<path fill-rule="evenodd" clip-rule="evenodd" d="M68.5354 37.675C78.9802 25.7776 92.6577 15.8633 108.822 9.41888L110.066 -3.05176e-05C77.9853 3.22219 52.6192 17.5982 35.2112 37.1794L53.8626 56.2647C56.1008 53.7861 58.5879 51.3074 61.5721 48.8288C64.805 46.1023 68.2868 43.6237 71.7684 41.3929L68.5354 37.675C68.5354 37.9229 68.5354 37.9229 68.5354 37.675Z" fill="#515151"/>
<path fill-rule="evenodd" clip-rule="evenodd" d="M132.198 8.67517C123.743 9.66662 115.786 11.4013 108.325 13.8799C92.9065 19.085 79.2285 27.2645 68.7837 37.4269L72.2657 41.3929L84.9482 56.0166C85.4456 55.5209 85.9432 55.0255 86.4406 54.5298C86.6893 54.2819 86.6892 54.282 86.9378 54.0342C88.43 52.547 90.1711 51.3072 91.6632 49.82C95.6422 46.8457 99.6212 44.1193 104.097 41.8885L102.605 39.9055L100.864 37.4269C109.32 29.2474 119.516 22.5554 131.204 17.846C132.199 17.5981 132.945 17.1026 133.94 16.8548L135.68 7.93146C134.437 8.42718 133.193 8.67517 132.198 8.67517Z" fill="#515151" fill-opacity="0.89"/>
<path d="M27.2534 107.82V115.752H0.395264V76.3419H9.84543V107.82H27.2534Z" fill="#515151"/>
<path d="M56.8473 98.4014V116H49.1378L48.3916 111.786C46.8995 114.016 43.1693 116.495 38.4442 116.495C33.4705 116.495 30.2375 113.273 30.2375 108.564C30.2375 102.615 35.7088 98.4015 47.8944 97.9058C47.8944 95.4271 46.4025 94.6834 43.1696 94.6834C38.4446 94.6834 35.2116 95.9227 31.2326 98.4014L33.2222 89.4781C35.4604 88.4866 39.1904 87.2475 44.1641 87.2475C50.6299 87.4954 56.8473 89.7262 56.8473 98.4014ZM47.6455 105.589V104.102H45.6565C39.9367 104.598 39.1904 106.333 39.1904 107.82C39.1904 109.06 40.1851 110.051 41.6773 110.051C43.6667 110.051 46.402 108.564 47.6455 105.589Z" fill="#515151"/>
<path d="M89.4246 98.8967V116H80.2233V100.136C80.2233 96.6659 78.4824 95.1788 75.7469 95.1788C73.0113 95.1788 71.2704 96.6658 70.027 99.3923V116.247H60.8257V88.4866H68.5352L69.2814 92.4526C71.5196 89.974 74.7521 87.991 79.4771 87.991C85.943 87.4953 89.4246 91.4608 89.4246 98.8967Z" fill="#515151"/>
<path d="M122.5 73.6151V115.752H114.791L114.293 112.529C112.553 114.265 109.817 116.496 105.341 116.496C98.1291 116.496 92.4089 110.794 92.4089 101.871C92.4089 92.9482 98.1291 87.4957 105.341 87.4957C109.071 87.4957 112.055 88.7346 113.547 90.2218V73.6151H122.5ZM113.299 105.837V97.9058C112.304 96.1708 110.315 94.9316 107.828 94.9316C103.849 94.9316 101.113 97.6578 101.113 102.119C101.113 106.581 103.6 109.307 107.828 109.307C110.563 109.307 112.304 108.068 113.299 105.837Z" fill="#515151"/>
<path d="M155.078 88.2388V113.769C155.078 123.931 148.612 127.154 140.157 127.154C134.935 127.154 130.707 125.914 128.22 124.923V116.495C131.453 118.478 135.929 119.718 139.908 119.718C143.39 119.718 146.374 117.982 146.374 115.008V111.786C144.633 114.512 141.649 116.247 137.918 116.247C130.706 116.247 125.236 110.299 125.236 101.871C125.236 93.4439 130.458 87.4957 137.918 87.4957C141.897 87.4957 145.13 89.7264 146.622 92.4529L147.617 88.2388H155.078ZM146.125 105.837V97.9058C145.13 95.9229 143.141 94.6834 140.902 94.6834C136.924 94.6834 134.437 97.6575 134.437 101.871C134.437 106.085 136.924 109.06 140.902 109.06C143.141 109.06 144.882 107.82 146.125 105.837Z" fill="#515151"/>
<path d="M183.925 98.4014V116H176.216L175.47 111.786C173.978 114.016 170.248 116.495 165.523 116.495C160.549 116.495 157.316 113.273 157.316 108.564C157.316 102.615 162.787 98.4015 174.973 97.9058C174.973 95.4271 173.48 94.6834 170.247 94.6834C165.522 94.6834 162.289 95.9227 158.31 98.4014L160.3 89.4781C162.538 88.4866 166.269 87.2475 171.243 87.2475C177.957 87.4954 183.925 89.7262 183.925 98.4014ZM174.973 105.589V104.102H172.983C167.264 104.598 166.517 106.333 166.517 107.82C166.517 109.06 167.512 110.051 169.004 110.051C170.745 110.051 173.481 108.564 174.973 105.589Z" fill="#515151"/>
<path d="M209.789 107.077V114.761C208.048 115.752 204.815 116.743 200.836 116.743C194.868 116.743 190.142 113.769 190.142 107.077V96.1708L189.645 95.6746H185.418V94.9315L198.598 80.8029H199.344V88.4869H209.54V95.6746H199.344V106.581C199.344 108.564 200.836 109.555 203.323 109.555C206.058 109.307 208.546 108.068 209.789 107.077Z" fill="#515151"/>
<path d="M240.377 104.846H220.98C221.974 107.82 224.212 109.307 228.937 109.307C233.414 109.307 236.646 108.068 238.636 106.581V114.264C236.646 115.504 232.668 116.495 227.694 116.495C217.747 116.495 211.529 110.795 211.529 102.119C211.529 93.4441 217.995 87.7432 226.451 87.7432C235.403 87.7432 240.377 93.4443 240.377 101.624V104.846ZM230.927 98.897L231.424 98.4014C231.176 95.9228 229.186 94.4353 226.451 94.4353C223.715 94.4353 221.726 95.9226 220.98 98.897H230.927Z" fill="#515151"/>
</svg>
