<svg width="289" height="61" viewBox="0 0 289 61" fill="none" xmlns="http://www.w3.org/2000/svg">
<path d="M5.92212 2.95433C5.92212 4.13262 6.80583 5.70367 7.88593 6.391C9.75154 7.56928 9.84974 8.64938 9.84974 28.7784C9.84974 49.1038 9.75154 49.9875 7.88593 50.4785C6.60945 50.7731 5.92212 51.8532 5.92212 53.326C5.92212 55.6826 6.02031 55.6826 15.7412 55.6826C24.6765 55.6826 25.5602 55.4862 25.5602 53.817C25.5602 52.8351 24.5783 51.3622 23.4 50.5767C21.338 49.202 21.1416 48.1219 20.8471 39.0884L20.4543 29.1712H23.3018C27.524 29.1712 29.6842 31.2332 32.8263 38.1065C42.5471 59.512 43.4309 60.5921 52.8571 60.5921C57.1775 60.5921 57.963 60.2975 57.963 58.8247C57.963 57.7446 56.8829 56.4681 55.6065 55.879C53.4463 54.8971 49.6168 48.2201 45.2965 38.0083C44.7073 36.6336 43.1363 33.8843 41.7616 31.9205L39.3069 28.2875L42.1544 26.6182C47.4567 23.4761 49.5187 15.7191 46.7693 9.23852C44.1182 2.85614 36.9503 0.695955 18.1959 0.695955C6.1185 0.695955 5.92212 0.695955 5.92212 2.95433ZM31.8444 8.64938C34.8883 10.1222 36.7539 14.4426 35.8702 18.272C34.9865 22.4942 30.6661 25.2436 25.1674 25.2436H20.6507V16.4064V7.56928H25.0692C27.4258 7.56928 30.4697 8.06024 31.8444 8.64938Z" fill="#515151"/>
<path d="M117.859 7.07834C117.859 12.7734 118.056 13.4607 119.823 13.4607C121.001 13.4607 121.787 12.7734 121.787 11.8897C121.787 9.33672 124.831 7.66748 129.446 7.56929H133.57V26.6182C133.57 45.9617 132.882 50.7731 130.133 50.7731C129.249 50.7731 128.66 51.6568 128.66 53.2278C128.66 55.6826 128.66 55.6826 138.381 55.6826C143.781 55.6826 148.396 55.2898 148.691 54.7989C149.575 53.4242 148.298 50.7731 146.825 50.7731C144.665 50.7731 144.371 48.2201 144.371 27.6001V7.56929H147.709C152.422 7.56929 154.19 8.453 155.27 11.1041C155.761 12.577 156.939 13.4607 158.117 13.4607C159.983 13.4607 160.179 12.9698 159.885 7.27472L159.59 1.18691L138.774 0.892341L117.859 0.69596V7.07834Z" fill="#515151"/>
<path d="M59.7305 6.09643C58.7486 7.3729 57.963 9.23852 57.963 10.3186C57.963 12.7734 61.0069 15.4245 63.6581 15.4245C66.4074 15.4245 69.7459 12.086 69.7459 9.53309C69.7459 6.88195 66.3092 3.64167 63.6581 3.64167C62.3816 3.64167 60.6142 4.72176 59.7305 6.09643Z" fill="#515151"/>
<path d="M164.696 5.40909C163.812 6.391 163.027 8.3548 163.027 9.82766C163.027 15.8173 171.078 17.5847 173.73 12.086C174.908 9.63128 174.81 9.04214 173.14 6.68557C170.686 3.54347 166.954 2.95433 164.696 5.40909Z" fill="#515151"/>
<path d="M231.171 11.0059C230.484 13.7553 225.574 18.3702 223.316 18.3702C222.53 18.3702 221.941 19.2539 221.941 20.334C221.941 21.8069 222.628 22.2978 224.396 22.2978H226.851V36.9282C226.851 54.0133 226.949 54.2097 235.295 55.2898C242.266 56.0753 244.427 54.6025 240.401 51.5586L237.651 49.5948V35.9463V22.2978H240.106C242.07 22.2978 242.561 21.8069 242.561 19.8431C242.561 17.8793 242.07 17.3883 240.106 17.3883C237.848 17.3883 237.651 16.9956 237.651 12.9697C237.651 8.74756 237.553 8.55118 234.706 8.55118C232.447 8.55118 231.662 9.04213 231.171 11.0059Z" fill="#515151"/>
<path d="M85.8491 18.272C75.3427 22.9852 71.7097 36.6336 78.0921 47.3364C80.8414 52.0495 85.3582 54.8971 92.1333 56.2717C100.381 57.941 111.673 50.4785 113.932 41.8377C115.699 35.1608 113.048 25.2436 108.433 21.2177C102.934 16.5046 92.6243 15.2281 85.8491 18.272ZM100.578 27.6983C102.149 30.7422 102.64 33.3934 102.64 39.2848C102.64 46.2563 102.443 47.2382 100.283 48.9074C96.9446 51.5586 94.4899 51.264 90.955 47.4346C85.8491 42.1323 84.0817 29.9567 87.7147 25.1454C91.446 20.2358 97.2392 21.4141 100.578 27.6983Z" fill="#515151"/>
<path d="M198.67 18.3702C196.019 19.9413 195.43 20.0395 195.43 18.8612C195.43 17.6829 193.957 17.3883 188.065 17.3883C181.487 17.3883 180.701 17.5847 180.701 19.2539C180.701 20.2359 181.585 21.3159 182.665 21.6105C184.53 22.1015 184.629 22.9852 184.629 35.9463C184.629 48.7111 184.432 49.8894 182.665 50.9694C181.585 51.6568 180.701 53.0314 180.701 53.9152C180.701 55.4862 181.781 55.6826 190.52 55.6826C199.652 55.6826 200.339 55.5844 200.339 53.7188C200.339 52.6387 199.652 51.755 198.866 51.755C196.412 51.755 195.43 48.2201 195.43 38.9902C195.43 27.2074 197.393 23.2798 203.187 23.2798C207.311 23.2798 208.096 26.0291 208.391 40.954L208.685 55.1916L216.344 55.4862C223.119 55.7808 223.905 55.5844 223.905 54.0133C223.905 53.0314 222.923 51.755 221.745 51.264C219.584 50.3803 219.486 49.5948 218.995 37.0264C218.504 22.6906 217.522 19.8431 212.515 17.5847C208.685 15.8173 202.205 16.21 198.67 18.3702Z" fill="#515151"/>
<path d="M254.638 18.9594C250.514 20.9232 249.042 22.396 247.078 26.52C240.499 39.6775 247.569 54.1115 261.61 56.1735C266.618 56.959 274.375 54.5043 278.106 50.9694C284.685 44.8816 285.667 31.3314 280.168 24.3598C273.884 16.5046 263.77 14.3444 254.638 18.9594ZM268.385 25.1454C273.687 31.4295 274.375 44.4889 269.563 48.5147C266.127 51.5586 263.476 51.3622 260.235 47.8273C255.228 42.4269 253.755 28.6802 257.781 24.2616C260.53 21.2177 265.439 21.7087 268.385 25.1454Z" fill="#515151"/>
<path d="M54.0354 19.3521C54.0354 20.4322 54.7227 21.3159 55.5083 21.3159C58.2576 21.3159 58.9449 25.1454 58.9449 40.3649V55.6826H66.3092C72.6916 55.6826 73.6735 55.4862 73.6735 53.9152C73.6735 53.0314 72.7898 51.6568 71.7097 50.9694C69.8441 49.8894 69.7459 48.7111 69.7459 33.5897V17.3883H61.8906C54.7227 17.3883 54.0354 17.5847 54.0354 19.3521Z" fill="#515151"/>
<path d="M159.099 19.3521C159.099 20.4322 159.786 21.3159 160.572 21.3159C162.929 21.3159 164.205 28.0911 163.812 38.892C163.518 47.9255 163.321 49.202 161.358 50.7731C160.081 51.755 159.099 53.2278 159.099 54.1115C159.099 55.4862 160.572 55.6826 168.918 55.6826C177.952 55.6826 178.737 55.4862 178.737 53.817C178.737 52.7369 177.854 51.5586 176.773 51.264C174.908 50.6749 174.81 49.7912 174.81 33.9825V17.3883H166.954C159.786 17.3883 159.099 17.5847 159.099 19.3521Z" fill="#515151"/>
</svg>
