<svg width="388" height="60" viewBox="0 0 388 60" fill="none" xmlns="http://www.w3.org/2000/svg">
<path fill-rule="evenodd" clip-rule="evenodd" d="M37.15 0.198606C21.7324 3.01805 9.77874 8.1717 4.38191 14.3262C-0.787751 20.2223 -0.944744 27.2634 3.99927 31.5168C8.43597 35.3335 15.8777 38.0195 29.8304 40.8405C42.2894 43.3587 49.2653 45.614 49.2653 47.1233C49.2653 48.7292 46.2526 49.6718 41.1042 49.6769C36.5927 49.6809 36.1228 49.5859 34.882 48.4198C33.8744 47.4726 33.6058 46.8271 33.8052 45.8288C34.5296 42.2022 30.8375 41.9227 29.0313 45.4669C26.1944 51.0351 28.9279 57.3523 34.8784 58.9798C40.1092 60.4108 50.187 58.9551 54.8085 56.1013C59.6187 53.1312 60.6263 49.3175 57.5132 45.8672C54.8968 42.9674 49.5651 40.5599 35.1707 35.7788C21.0625 31.0927 16.1968 28.9041 13.6783 26.1124C11.646 23.8601 11.6071 23.6094 12.858 20.8506C15.5557 14.9054 28.8441 8.23792 39.9895 7.23812C45.9275 6.70537 47.3854 8.56293 45.2627 13.9562C44.0739 16.9753 44.3212 18.0858 46.6797 20.3229C49.6222 23.1135 52.8201 21.9833 55.0826 17.3528C58.2124 10.9467 55.6889 4.22508 49.085 1.38087C46.5525 0.289588 40.1304 -0.346278 37.15 0.198606ZM151.672 1.51583C150.267 1.98641 150.029 2.39078 145.781 11.5194C144.423 14.4384 142.807 17.3953 142.19 18.0903L141.069 19.3539L141.322 18.0903C141.462 17.3953 141.856 14.9615 142.198 12.6814C142.816 8.56141 142.812 8.52401 141.474 6.49914C138.659 2.23914 135.89 3.53564 133.825 10.0798C132.447 14.4485 130.778 25.2036 130.249 33.1216L129.904 38.2965L127.161 40.6433C120.958 45.9491 114.649 49.3529 112.17 48.7302C110.859 48.4006 109.337 47.1405 109.337 46.3843C109.337 46.1392 110.416 45.1995 111.734 44.2963C119.595 38.9101 124.246 31.7377 123.268 26.5133C122.637 23.1494 118.41 21.7362 113.261 23.1681C108.814 24.405 103.946 29.8281 102.166 35.5286C100.533 40.7616 95.5908 47.9123 93.607 47.9123C92.6463 47.9123 92.1355 44.9392 91.7059 36.8585C91.1097 25.6277 90.0289 22.6394 86.563 22.6394C84.4256 22.6394 82.2722 24.8528 77.9743 31.4662L74.0207 37.5504L74.0212 34.265C74.0212 32.458 74.3544 27.1127 74.7612 22.3867C75.7946 10.3922 75.7698 9.70678 74.2494 8.18484C73.1666 7.10013 72.6027 6.93939 70.3372 7.07031C67.74 7.21992 67.6779 7.26087 67.0247 9.24479C66.3649 11.2494 65.5234 28.2278 65.3472 43.114C65.274 49.2791 65.3972 50.4977 66.3028 52.5479C67.4835 55.2202 68.7879 56.1301 71.1151 55.9036C73.1726 55.7035 74.0096 54.2184 78.2433 43.2581C79.993 38.7287 82.1157 33.6584 82.9597 31.9904L84.4948 28.9577L84.4312 38.0559C84.3873 44.3428 84.5756 47.8567 85.0415 49.4287C85.9057 52.3437 88.8008 55.1308 92.1062 56.2301C95.7801 57.4518 97.9265 56.9004 100.677 54.0274L102.901 51.7033L105.263 54.0112C110.727 59.3488 117.85 58.5472 126.194 51.6552L129.412 48.9976L129.998 51.9818C130.751 55.8106 132.506 58.0215 134.796 58.0215C135.795 58.0215 136.795 57.6277 137.347 57.0171C137.848 56.4627 139.897 50.294 141.921 43.2434C143.939 36.2206 146.348 28.4269 147.276 25.9249L148.962 21.3758L149.29 28.9966C149.861 42.2962 152.162 47.5752 157.385 47.5752C159.587 47.5752 162.522 44.2655 165.586 38.3263C166.881 35.8147 167.998 33.7595 168.068 33.7595C168.138 33.7595 168.102 34.5607 167.988 35.5392C167.689 38.1054 168.798 45.0196 170.023 48.2242C171.204 51.3166 174.303 55.1283 176.605 56.3201C180.024 58.0902 182.521 57.1167 185.987 52.6621C187.598 50.5908 187.867 50.4245 188.325 51.2165C190.719 55.3582 195.111 57.7576 199.663 57.4089C204.716 57.0222 211.237 52.8547 215.925 47.0167L218.065 44.3524L218.743 47.0167C219.706 50.798 220.981 53.0453 222.909 54.3569C225.317 55.9951 227.535 55.847 229.46 53.9192C231.608 51.7685 232.799 49.318 235.564 41.3636C236.864 37.6227 238.148 34.4884 238.417 34.3989C238.687 34.3089 239.288 36.1786 239.754 38.5533C240.801 43.8914 241.845 47.0232 243.393 49.4787C245.441 52.7273 249.33 54.9887 252.868 54.9887C256.062 54.9887 261.282 47.4771 261.282 42.88C261.282 39.4863 259.974 38.8864 258.206 41.4677C256.124 44.5076 254.567 45.8905 253.237 45.8829C250.747 45.8678 250.13 44.8553 248.923 38.8141C247.414 31.2661 245.48 28.3541 241.633 27.8371C239.031 27.4878 238.458 27.9735 234.693 33.7231C231.134 39.1583 228.083 42.8578 227.161 42.8578C226.276 42.8578 226.248 41.0255 227.049 35.4826C227.746 30.6494 227.292 29.4601 224.186 27.9841C222.522 27.1936 222.24 27.185 221.167 27.8896C220.084 28.5993 218.976 31.1726 218.167 34.8558C217.97 35.7495 216.292 37.5312 213.2 40.1293C207.337 45.056 203.466 47.5732 200.457 48.4168C198.416 48.989 197.881 48.9667 196.378 48.2495C195.426 47.7951 194.648 47.1097 194.648 46.7265C194.648 46.3429 196.216 44.8619 198.133 43.4345C204.435 38.7423 207.93 33.9698 208.569 29.1861C208.979 26.119 208.17 24.2705 206.025 23.3734C203.205 22.1931 200.231 22.4524 196.779 24.1796C191.824 26.6593 188.789 30.844 187.072 37.5661C186.514 39.7512 185.553 42.1198 184.938 42.83C179.81 48.7438 178.422 49.5151 177.385 47.0278C176.479 44.8578 176.638 32.9963 177.712 22.5621C178.531 14.6148 178.582 12.7951 178.038 10.9785C177.26 8.37641 174.984 5.95931 173.313 5.95931C171.725 5.95931 170.582 8.09436 165.945 19.7133C161.611 30.5751 159.051 35.7813 158.043 35.7813C157.076 35.7813 157.072 35.8819 158.555 22.0374C160.02 8.35922 160.062 7.01976 159.102 4.71993C158.041 2.17747 154.394 0.604488 151.672 1.51583ZM268.349 8.34608C267.932 8.50278 266.967 9.06889 266.203 9.60417L264.815 10.5772V19.1224V27.6682L263.389 28.4067C261.814 29.222 258.253 32.9523 258.253 33.7863C258.253 34.8705 259.758 37.1754 260.997 37.9882C262.992 39.2968 264.3 42.4514 264.861 47.3012C265.14 49.7224 265.615 52.3336 265.915 53.1034C266.681 55.0701 269.157 57.0106 270.9 57.0106C274.053 57.0106 275.106 52.421 273.454 45.8784C272.867 43.5553 272.387 40.1465 272.387 38.3036V34.9529L279.581 33.2945C287.568 31.4531 291.065 30.1515 291.065 29.0203C291.065 28.6069 290.327 27.741 289.424 27.0966C287.873 25.9891 287.389 25.9305 280.552 26.0245L273.32 26.1246L273.485 18.0231C273.647 10.0272 273.634 9.90896 272.457 8.95162C271.285 7.99732 269.841 7.78452 268.349 8.34608ZM377.102 19.6148C369.705 21.1018 360.852 26.7382 359.661 30.7177C358.44 34.7987 361.852 39.4272 370.95 46.031C373.656 47.9957 375.871 49.9054 375.871 50.2743C375.871 51.1154 373.764 51.1402 369.476 50.3491C366.667 49.8305 366.14 49.8583 365.44 50.5589C362.577 53.4254 369.721 59.2589 376.892 59.9099C382.182 60.3901 386.817 57.007 387.35 52.277C387.852 47.8082 384.239 43.6695 375.07 38.2111C368.33 34.1987 366.28 32.5095 366.28 30.9668C366.28 29.3089 369.096 26.7074 372.817 24.9261C376.433 23.1959 376.765 23.3612 378.126 27.5727C379.073 30.5038 379.97 31.2322 382.635 31.2322C384.702 31.2322 385.225 30.5322 385.656 27.1885C386.372 21.6356 382.797 18.4694 377.102 19.6148ZM340.72 23.6276C338.742 24.0982 336.408 25.7399 334.811 27.783C333.662 29.2523 333.482 29.314 331.937 28.7747C329.664 27.9816 329.079 28.0448 327.915 29.2104C327.05 30.0772 326.906 30.8951 326.906 34.9569C326.906 37.5616 327.246 41.6457 327.661 44.0324C329.222 52.9917 331.5 56.5051 335.749 56.5051C336.96 56.5051 338.121 56.2312 338.328 55.896C338.534 55.5609 338.719 51.2964 338.737 46.4187C338.766 38.4638 338.891 37.2123 339.944 34.265C341.257 30.5933 343.732 26.4152 344.85 25.9856C346.669 25.2865 347.613 26.6654 348.611 31.4784C349.392 35.2435 351.243 37.2977 353.856 37.2977C356.211 37.2977 356.907 36.0174 356.531 32.374C356.122 28.4047 355.355 27.5671 350.284 25.5519C345.221 23.5396 342.982 23.0893 340.72 23.6276ZM202.39 26.6184C199.013 29.0673 194.872 35.2112 195.255 37.2037C195.372 37.8138 196.569 36.9424 199.618 34.0249C203.896 29.9322 205.249 28.0534 205.249 26.2029C205.249 24.8235 204.767 24.8938 202.39 26.6184ZM115.235 28.3258C112.457 31.1422 109.663 35.7682 109.932 37.1036C110.138 38.1226 116.268 32.599 118.441 29.4373C121.513 24.9661 119.304 24.1998 115.235 28.3258ZM298.481 26.1994C297.147 26.4238 295.727 26.8797 295.326 27.2128C294.311 28.0569 294.419 29.5945 295.543 30.2981C296.435 30.8556 296.389 31.0174 294.708 33.2086C290.695 38.4416 288.363 45.6585 289.479 49.3893C290.746 53.625 295.145 56.9767 299.467 56.9995C302.384 57.0151 307.417 55.3608 311.004 53.208C317.533 49.2902 321.425 43.8838 321.425 38.7352C321.425 35.4053 320.873 33.8929 318.794 31.5218C314.711 26.8666 306.815 24.7972 298.481 26.1994ZM302.008 31.5633C301.82 31.7518 301.666 32.3927 301.666 32.9872C301.666 33.5821 300.849 36.0962 299.851 38.575C298.853 41.0538 297.915 44.2574 297.767 45.6949C297.524 48.0463 297.606 48.343 298.583 48.6533C300.262 49.1871 302.355 48.5239 305.581 46.4359C310.753 43.0887 313.483 38.666 312.125 35.8334C311.125 33.7469 303.178 30.3926 302.008 31.5633Z" fill="#515151"/>
</svg>
