<svg width="367" height="119" viewBox="0 0 367 119" fill="none" xmlns="http://www.w3.org/2000/svg">
<g clip-path="url(#clip0_2_140)">
<path d="M276.461 90.6043H270.417L265.021 70.3862L260.759 90.6043H254.716L246.267 56.4099H251.459L257.877 82.4501L262.603 56.4099H267.438L273.419 82.2969L278.906 56.4099H283.945L276.461 90.6043Z" fill="#515151"/>
<path d="M309.991 80.6173H304.453L304.356 82.3196C304.358 82.9474 304.214 83.5669 303.936 84.1299C303.659 84.693 303.255 85.1842 302.756 85.5654C302.149 85.9898 301.431 86.2284 300.691 86.252C299.193 86.4053 297.354 86.1896 296.378 85.5995C295.13 84.8505 294.812 83.5453 294.71 82.1948V75.0393H309.991V64.2578C309.991 64.2578 309.991 64.0819 309.991 63.7981C309.928 61.9125 309.212 60.1074 307.965 58.6911C307.071 57.7388 305.957 57.0216 304.719 56.6029C304.544 56.5405 304.373 56.4781 304.186 56.427C303.136 56.1092 301.031 56.0014 299.017 55.9844C297.572 55.9704 296.129 56.1131 294.715 56.41L294.182 56.5859C292.943 57.0097 291.83 57.7352 290.942 58.6968C289.701 60.1147 288.993 61.9205 288.939 63.8038C288.939 64.0875 288.939 64.2634 288.939 64.2634V83.2559C288.939 83.2559 288.939 83.4318 288.939 83.7212C288.991 85.6049 289.7 87.4111 290.942 88.8283C291.828 89.7921 292.942 90.5179 294.182 90.9392C294.352 91.0016 294.539 91.064 294.715 91.1207C296.349 91.4424 298.01 91.6058 299.675 91.6088C301.204 91.6515 302.731 91.4834 304.214 91.1094C304.402 91.064 304.572 90.9959 304.748 90.9392C305.978 90.5168 307.085 89.7976 307.971 88.8453C309.218 87.4293 309.934 85.624 309.997 83.7383C309.997 83.4545 309.997 80.657 309.997 80.657M294.715 67.6511V65.3813C294.812 64.0194 295.192 62.8051 296.384 61.9766C296.704 61.7615 297.059 61.604 297.433 61.5113C299.136 61.063 301.598 61.3354 302.574 61.988C303.789 62.7994 304.146 64.0535 304.243 65.3927V70.4997H294.71L294.715 67.6511Z" fill="#515151"/>
<path d="M242.022 63.6847C242.031 63.5316 242.031 63.3781 242.022 63.225C241.963 61.3395 241.249 59.5335 240.002 58.118C239.115 57.1655 238.006 56.448 236.773 56.0298C236.609 55.9674 236.427 55.905 236.24 55.8539C235.19 55.5418 233.079 55.4283 231.065 55.417C229.62 55.4006 228.177 55.5434 226.763 55.8425L226.224 56.0184C224.985 56.4442 223.872 57.1715 222.984 58.135C221.746 59.5542 221.038 61.3592 220.981 63.2421C220.981 63.5315 220.981 63.7074 220.981 63.7074V83.3751C220.981 83.3751 220.981 83.551 220.981 83.8347C221.039 85.7173 221.747 87.5219 222.984 88.9418C223.872 89.9035 224.986 90.629 226.224 91.0527C226.4 91.1151 226.582 91.1775 226.763 91.2286C228.177 91.527 229.62 91.6697 231.065 91.6542C232.801 91.7002 234.536 91.5536 236.24 91.2172C236.427 91.1605 236.603 91.1037 236.773 91.0413C238.004 90.6191 239.112 89.9022 240.002 88.9531C241.248 87.5368 241.962 85.7313 242.022 83.8461C242.031 83.6911 242.031 83.5358 242.022 83.3808V63.6847ZM236.229 82.6204C236.229 85.0207 234.112 86.3712 231.496 86.3712C228.88 86.3712 226.769 84.964 226.792 82.592V64.5585C226.792 62.1355 228.891 60.6318 231.496 60.6318C234.101 60.6318 236.257 62.1355 236.257 64.5302L236.229 82.6204Z" fill="#515151"/>
<path d="M316.307 90.9107V64.1215C316.245 62.3568 316.783 60.6231 317.832 59.2025C318.88 57.7818 320.379 56.7576 322.083 56.2964C324.427 55.5928 332.042 55.9162 332.104 56.0297L331.946 60.8474C331.781 61.0062 325.777 60.4161 323.718 61.795C321.658 63.1739 322.061 65.8182 322.061 68.1277V90.9107H316.307Z" fill="#515151"/>
<path d="M213.411 63.8719C213.411 63.8719 213.411 63.696 213.411 63.4066C213.346 61.4621 212.585 59.6056 211.266 58.1747C210.406 57.2709 209.341 56.5861 208.162 56.1773C207.992 56.1149 207.811 56.0525 207.629 56.0014C206.579 55.6836 204.474 55.5758 202.46 55.5644C201.012 55.5438 199.568 55.6866 198.153 55.99C197.977 56.0411 197.795 56.1035 197.625 56.1659C196.437 56.5718 195.364 57.2546 194.493 58.1577L194.317 58.362C193.127 59.7645 192.447 61.5285 192.387 63.3669C192.387 63.6336 192.387 63.7981 192.387 63.8265L192.331 118.67H197.858V91.0583C199.272 91.5384 200.751 91.8061 202.244 91.8527C203.981 91.9609 205.725 91.8137 207.419 91.4158L207.947 91.2399C209.153 90.8363 210.25 90.1606 211.153 89.2652C211.849 88.6054 212.408 87.8146 212.797 86.9381C213.187 86.0617 213.399 85.1169 213.423 84.1581C213.423 83.8858 213.423 63.8492 213.423 63.8492M207.782 82.6544C207.782 85.049 205.66 86.4052 203.05 86.4052C200.439 86.4052 198.317 84.9923 198.346 82.6204V64.6096C198.346 62.1979 200.439 60.6828 203.05 60.6828C205.66 60.6828 207.805 62.1866 207.805 64.5812L207.782 82.6544Z" fill="#515151"/>
<path d="M240.269 32.0154H234.73L234.634 33.7178C234.638 34.3451 234.495 34.9648 234.218 35.5273C233.94 36.0898 233.534 36.5797 233.034 36.9579C232.423 37.3871 231.698 37.6242 230.951 37.6388C229.447 37.792 227.615 37.5764 226.627 36.9863C225.373 36.2372 225.055 34.9264 224.965 33.5816V26.4374H240.24V15.6559C240.24 15.6559 240.24 15.48 240.24 15.1963C240.176 13.311 239.46 11.5063 238.215 10.0893C237.326 9.14113 236.22 8.42429 234.991 8.00104C234.816 7.93863 234.645 7.87621 234.452 7.81946C233.403 7.50736 231.297 7.39955 229.283 7.38253C227.836 7.3682 226.392 7.5109 224.976 7.80811C224.794 7.86486 224.619 7.9216 224.448 7.9897C223.207 8.41304 222.091 9.14072 221.202 10.1063C219.967 11.527 219.261 13.3314 219.205 15.2133C219.197 15.3664 219.197 15.5198 219.205 15.6729V34.6484C219.197 34.8015 219.197 34.9549 219.205 35.108C219.261 36.9899 219.967 38.7943 221.202 40.215C222.092 41.1797 223.208 41.9089 224.448 42.3373C224.619 42.394 224.794 42.4621 224.976 42.5132C226.612 42.8282 228.275 42.9897 229.941 42.9955C231.47 43.0366 232.998 42.8667 234.481 42.4905C234.668 42.4394 234.838 42.3827 235.02 42.3146C236.249 41.8926 237.356 41.1756 238.243 40.2264C239.49 38.8106 240.206 37.0052 240.269 35.1194C240.269 34.8356 240.269 32.0381 240.269 32.0381M224.987 19.0095V16.7397C225.078 15.3779 225.464 14.1749 226.65 13.3351C226.972 13.1217 227.33 12.9662 227.705 12.8754C229.379 12.4271 231.865 12.6938 232.841 13.3464C234.055 14.1635 234.418 15.4119 234.509 16.7511V21.8581H224.987V19.0095Z" fill="#515151"/>
<path d="M206.897 42.2919H200.854L195.452 22.068L191.196 42.2919H185.152L176.698 8.09746H181.895L188.313 34.132L193.04 8.09746H197.869L203.85 33.9788L209.337 8.09746H214.382L206.897 42.2919Z" fill="#515151"/>
<path d="M262.127 16.9439C262.127 15.4175 261.735 14.2713 260.958 13.5393C260.532 13.1499 260.034 12.8491 259.491 12.6542C258.949 12.4594 258.373 12.3745 257.797 12.4044C256.657 12.3315 255.527 12.6586 254.602 13.3293C254.224 13.6445 253.925 14.0435 253.728 14.4946C253.531 14.9457 253.441 15.4366 253.467 15.9282C253.466 16.4164 253.566 16.8995 253.762 17.3469C253.957 17.7943 254.243 18.1962 254.602 18.5271C256.096 19.8375 257.685 21.0344 259.357 22.1077C261.249 23.3031 262.732 24.2735 263.806 25.0187C264.808 25.6997 265.706 26.5215 266.473 27.4588C267.199 28.3559 267.744 29.3848 268.079 30.4889C268.785 32.7529 268.807 35.1752 268.142 37.4515C267.579 39.2579 266.33 40.7716 264.663 41.6676C264.21 41.9105 263.737 42.1155 263.25 42.2805C261.587 42.8096 259.848 43.057 258.103 43.0125C256.202 43.0707 254.307 42.7744 252.514 42.1386C251.108 41.6376 249.852 40.7906 248.86 39.6759C247.984 38.6803 247.331 37.5101 246.942 36.2428C246.551 34.9554 246.36 33.6159 246.374 32.2707H252.287C252.1 32.2707 252.928 34.8583 253.042 35.0512C253.506 35.9142 254.192 36.6378 255.028 37.1475C255.865 37.6572 256.823 37.9345 257.803 37.9509C259.647 38.0019 261.412 37.5877 262.291 36.0045C262.615 35.3613 262.779 34.6498 262.77 33.9299C262.761 33.2101 262.579 32.5028 262.24 31.8678C261.647 30.7395 260.766 29.7881 259.687 29.11C258.552 28.3326 257.371 27.6744 256.282 26.8856C254.296 25.5635 252.69 24.4116 251.459 23.4185C250.451 22.6495 249.544 21.7573 248.758 20.7629C248.249 20.1036 247.865 19.3577 247.623 18.5612C247.413 17.7633 247.313 16.9404 247.328 16.1155C247.354 15.2281 247.523 14.3507 247.827 13.5166C248.195 12.4657 248.736 11.4838 249.427 10.6112C250.277 9.57274 251.357 8.74694 252.582 8.19958C254.142 7.50082 255.839 7.1633 257.547 7.21222C259.292 7.16003 261.033 7.40762 262.694 7.94423C263.925 8.34686 265.036 9.0488 265.929 9.98704C266.713 10.8615 267.273 11.9129 267.563 13.0513C267.886 14.325 268.041 15.6356 268.022 16.9496H262.127" fill="#515151"/>
<path d="M282.793 -1.52588e-05V7.60378H289.75V12.6257H282.793V34.671C282.793 35.6527 282.844 36.5493 283.361 36.9408C284.019 37.4572 284.552 37.4572 285.687 37.4572C286.675 37.4572 287.895 37.0827 289.739 36.7479V41.5201C288.096 41.9838 286.415 42.3046 284.717 42.4791C282.833 42.6153 280.745 42.6834 278.872 41.3442C278.214 40.8732 277.215 39.6873 277.051 36.7763V12.6257H272.216V7.60378H277.051V-1.52588e-05H282.805" fill="#515151"/>
<path d="M324.234 42.5585V15.792C324.234 15.792 323.826 9.79975 330.011 7.9442C332.349 7.24624 339.969 7.56401 340.032 7.6775L339.867 12.4838C339.708 12.6483 333.71 12.0525 331.645 13.4314C329.579 14.8103 330.028 16.6545 329.982 19.7641V42.5585H324.234Z" fill="#515151"/>
<path d="M361.146 8.11448C360.97 8.05206 360.795 7.98964 360.579 7.93857C359.535 7.6208 357.424 7.51866 355.409 7.50163C353.964 7.48393 352.522 7.62666 351.108 7.92722C350.927 7.98396 350.751 8.04071 350.58 8.10313C344.951 10.1289 345.332 15.7693 345.332 15.7693V42.5586H351.085V19.7642C351.085 17.4547 350.688 14.8104 352.742 13.4315C353.683 12.9305 354.725 12.6492 355.79 12.6087C356.895 12.6441 357.977 12.9292 358.956 13.4428C361.016 14.8217 360.619 17.466 360.619 19.7699V42.5586H366.373V15.7807C366.373 15.7807 366.753 10.1403 361.135 8.11448" fill="#515151"/>
<path d="M316.806 32.1061H311.273L311.183 33.8085C311.184 34.4362 311.04 35.0558 310.763 35.6188C310.485 36.1818 310.081 36.6731 309.582 37.0543C308.974 37.4741 308.256 37.7086 307.517 37.7296C306.013 37.8828 304.18 37.6671 303.199 37.0827C301.95 36.3393 301.632 35.0228 301.536 33.678V26.5338H316.806V15.7523C316.815 15.5992 316.815 15.4458 316.806 15.2927C316.748 13.408 316.036 11.6022 314.792 10.1856C313.904 9.23424 312.795 8.51691 311.563 8.09743L311.035 7.91585C309.985 7.59808 307.874 7.49594 305.86 7.47892C304.415 7.4626 302.972 7.60532 301.559 7.9045L301.025 8.08041C299.783 8.51208 298.668 9.24519 297.779 10.214C296.542 11.6342 295.835 13.4385 295.776 15.321C295.776 15.6048 295.776 15.775 295.776 15.775V34.7448C295.776 34.7448 295.776 34.915 295.776 35.2044C295.836 37.0866 296.544 38.8905 297.779 40.3114C298.671 41.272 299.786 41.9972 301.025 42.4223C301.201 42.4848 301.371 42.5472 301.559 42.6039C303.193 42.9218 304.853 43.0833 306.518 43.0863C308.047 43.1288 309.575 42.9608 311.058 42.5869C311.239 42.5358 311.415 42.4677 311.585 42.411C312.809 41.9747 313.908 41.2462 314.786 40.2887C316.028 38.8709 316.74 37.0659 316.8 35.1817C316.8 34.898 316.8 32.1005 316.8 32.1005M301.53 19.1002V16.8305C301.627 15.4686 302.013 14.2599 303.193 13.4258C303.512 13.2101 303.868 13.0543 304.243 12.9661C305.945 12.5122 308.408 12.7846 309.384 13.4428C310.598 14.2486 310.961 15.497 311.052 16.8475V21.9545H301.53V19.1002Z" fill="#515151"/>
<path d="M169.383 79.2554C171.517 88.8169 164.236 92.6528 155.827 91.291C154.97 91.1491 130.729 86.7514 130.729 86.7514L128.623 64.5358L167.119 70.0174L169.389 79.2781" fill="#515151"/>
<path d="M124.839 85.7356L80.5095 78.4042L82.1551 65.5288C82.8417 60.4842 85.486 58.6627 91.291 59.4571L123.136 63.6733L124.839 85.7356Z" fill="#515151"/>
<path d="M125.156 90.5646L125.905 100.438C126.365 107.344 120.917 111.413 113.745 110.17L77.2808 102.793L79.8797 82.8474L125.162 90.5646" fill="#515151"/>
<path d="M128.181 59.8884L124.209 19.174C123.335 10.2651 125.729 6.6221 135.665 7.12146L152.763 8.001L165.757 64.7458L128.186 59.86" fill="#515151"/>
<path d="M83.5566 54.3671L86.3031 33.4226L121.133 36.9748L122.143 49.4133C122.58 54.8381 119.873 58.884 111.067 57.8342L83.5566 54.3671Z" fill="#515151"/>
<path d="M118.784 6.38947L120.741 32.6339L86.8931 29.5073L88.7997 15.8034C89.8551 7.53004 93.413 4.75522 102.708 5.28295L118.795 6.3838" fill="#515151"/>
<path d="M35.7209 71.0104L42.1728 52.7726L78.0979 57.5846L76.5091 67.6908C76.0636 69.6731 74.9983 71.4619 73.4676 72.7978C70.6871 75.1527 68.3265 75.8848 63.2535 75.5102C61.5171 75.3854 35.7266 71.0161 35.7266 71.0161" fill="#515151"/>
<path d="M62.9869 31.2607C63.5998 31.2607 82.1497 32.963 82.1497 32.963L78.745 53.7713L43.4724 49.2317L47.2119 38.8645C49.1412 33.6326 53.1077 30.2903 62.9756 31.238" fill="#515151"/>
<path d="M38.1041 52.2052L31.3401 70.2273C31.3401 70.2273 0.771729 65.3472 0 65.1203L4.67009 57.8059C7.75701 52.9258 14.3167 48.9877 24.1676 50.3326C25.2855 50.5028 38.1041 52.2052 38.1041 52.2052Z" fill="#515151"/>
</g>
<defs>
<clipPath id="clip0_2_140">
<rect width="366.395" height="118.699" fill="white"/>
</clipPath>
</defs>
</svg>
