<svg width="279" height="65" viewBox="0 0 279 65" fill="none" xmlns="http://www.w3.org/2000/svg">
<g clip-path="url(#clip0_21_256)">
<mask id="mask0_21_256" style="mask-type:luminance" maskUnits="userSpaceOnUse" x="24" y="21" width="12" height="22">
<path d="M24 21.86H35.68V42.98H24V21.86Z" fill="white"/>
</mask>
<g mask="url(#mask0_21_256)">
<mask id="mask1_21_256" style="mask-type:luminance" maskUnits="userSpaceOnUse" x="24" y="21" width="12" height="22">
<path d="M29.8625 21.9225C28.7781 21.9225 27.8975 22.8319 27.8975 23.9525C27.8975 25.0706 28.7781 25.9825 29.8625 25.9825C30.9462 25.9825 31.8275 25.0706 31.8275 23.9525C31.8275 22.8319 30.9462 21.9225 29.8625 21.9225ZM24.0819 30.4162V31.1619L25.5719 33.59H26.4762V32.1656H33.2487V33.59H34.0625L35.6431 31.0694V30.3925H24.0819V30.4162ZM32.73 42.9225V32.7262H26.9956V42.9225H32.73ZM26.4075 29.8087C26.4075 29.8087 26.6562 27.9894 27.2212 27.0562C27.4225 26.7287 27.695 26.5887 28.0781 26.5887H31.8275C32.1881 26.5887 32.4375 26.7525 32.6406 27.0562C33.0706 27.7312 33.3394 29.8087 33.3394 29.8087H26.4075Z" fill="white"/>
</mask>
<g mask="url(#mask1_21_256)">
<path d="M24.0819 21.9225V42.9225H35.6431V21.9225H24.0819Z" fill="url(#paint0_linear_21_256)"/>
</g>
</g>
<path d="M43.1881 32.4088C43.1881 32.6256 43.1825 32.8431 43.1719 33.0606C43.1613 33.2775 43.145 33.4944 43.1238 33.7106C43.1025 33.9269 43.0756 34.1431 43.0444 34.3581C43.0119 34.5725 42.9744 34.7875 42.9319 35.0006C42.8894 35.2138 42.8419 35.4256 42.7888 35.6363C42.7356 35.8475 42.6781 36.0569 42.6144 36.265C42.5513 36.4731 42.4831 36.6788 42.4094 36.8844C42.3369 37.0894 42.2581 37.2919 42.175 37.4925C42.0913 37.6931 42.0031 37.8919 41.91 38.0888C41.8169 38.2856 41.7188 38.4794 41.6163 38.6706C41.5144 38.8631 41.4069 39.0519 41.295 39.2388C41.1825 39.425 41.0663 39.6081 40.9456 39.7888C40.8244 39.97 40.6988 40.1475 40.5688 40.3225C40.4388 40.4969 40.305 40.6681 40.1675 40.8363C40.0294 41.0044 39.8869 41.1688 39.7406 41.33C39.5944 41.4913 39.4438 41.6481 39.29 41.8019C39.1363 41.9556 38.9788 42.1063 38.8169 42.2519C38.6556 42.3981 38.4906 42.54 38.3225 42.6775C38.1538 42.8156 37.9825 42.9494 37.8075 43.0794C37.6325 43.2081 37.4544 43.3338 37.2738 43.4538C37.0925 43.575 36.9081 43.6913 36.7219 43.8031C36.5344 43.915 36.3456 44.0225 36.1538 44.1244C35.9613 44.2269 35.7669 44.325 35.57 44.4175C35.3731 44.5106 35.1744 44.5988 34.9731 44.6819C34.7713 44.765 34.5688 44.8432 34.3638 44.9169C34.1581 44.99 33.9513 45.0581 33.7431 45.1213C33.535 45.1844 33.325 45.2425 33.1138 45.295C32.9025 45.3481 32.69 45.3957 32.4769 45.4382C32.2631 45.48 32.0481 45.5175 31.8331 45.5494C31.6175 45.5813 31.4013 45.6082 31.1844 45.6294C30.9675 45.6507 30.7513 45.6663 30.5338 45.6769C30.3156 45.6875 30.0981 45.6932 29.88 45.6932C29.6625 45.6932 29.445 45.6875 29.2269 45.6769C29.01 45.6663 28.7931 45.6507 28.5763 45.6294C28.3594 45.6082 28.1431 45.5813 27.9281 45.5494C27.7125 45.5175 27.4975 45.48 27.2844 45.4382C27.0706 45.3957 26.8581 45.3481 26.6469 45.295C26.4356 45.2425 26.2256 45.1844 26.0175 45.1213C25.8088 45.0581 25.6025 44.99 25.3969 44.9169C25.1919 44.8432 24.9888 44.765 24.7881 44.6819C24.5863 44.5988 24.3875 44.5106 24.1906 44.4175C23.9938 44.325 23.7994 44.2269 23.6075 44.1244C23.415 44.0225 23.2256 43.915 23.0394 43.8031C22.8525 43.6913 22.6681 43.575 22.4869 43.4538C22.3063 43.3338 22.1275 43.2081 21.9531 43.0794C21.7781 42.9494 21.6069 42.8156 21.4381 42.6775C21.27 42.54 21.105 42.3981 20.9438 42.2519C20.7819 42.1063 20.6244 41.9556 20.4706 41.8019C20.3169 41.6481 20.1663 41.4913 20.0206 41.33C19.8738 41.1688 19.7313 41.0044 19.5938 40.8363C19.4556 40.6681 19.3213 40.4969 19.1919 40.3225C19.0619 40.1475 18.9369 39.97 18.8156 39.7888C18.695 39.6081 18.5781 39.425 18.4663 39.2388C18.3538 39.0519 18.2469 38.8631 18.1444 38.6706C18.0419 38.4794 17.9438 38.2856 17.8506 38.0888C17.7575 37.8919 17.6694 37.6931 17.5856 37.4925C17.5019 37.2919 17.4238 37.0894 17.3513 36.8844C17.2775 36.6788 17.2094 36.4731 17.1463 36.265C17.0825 36.0569 17.025 35.8475 16.9719 35.6363C16.9188 35.4256 16.8713 35.2138 16.8288 35.0006C16.7863 34.7875 16.7494 34.5725 16.7169 34.3581C16.685 34.1431 16.6581 33.9269 16.6369 33.7106C16.6163 33.4944 16.5994 33.2775 16.5888 33.0606C16.5781 32.8431 16.5731 32.6256 16.5731 32.4088C16.5731 32.1913 16.5781 31.9738 16.5888 31.7569C16.5994 31.5394 16.6163 31.3231 16.6369 31.1063C16.6581 30.8906 16.685 30.6744 16.7169 30.4594C16.7494 30.2444 16.7863 30.03 16.8288 29.8169C16.8713 29.6038 16.9188 29.3913 16.9719 29.1806C17.025 28.97 17.0825 28.76 17.1463 28.5519C17.2094 28.3444 17.2775 28.1381 17.3513 27.9338C17.4238 27.7288 17.5019 27.5256 17.5856 27.325C17.6694 27.1238 17.7575 26.9256 17.8506 26.7288C17.9438 26.5325 18.0419 26.3388 18.1444 26.1463C18.2469 25.955 18.3538 25.7656 18.4663 25.5794C18.5781 25.3925 18.695 25.2094 18.8156 25.0281C18.9369 24.8475 19.0619 24.67 19.1919 24.495C19.3213 24.3206 19.4556 24.1494 19.5938 23.9813C19.7313 23.8125 19.8738 23.6488 20.0206 23.4875C20.1663 23.3269 20.3169 23.1688 20.4706 23.015C20.6244 22.8613 20.7819 22.7119 20.9438 22.5656C21.105 22.4194 21.27 22.2775 21.4381 22.1394C21.6069 22.0019 21.7781 21.8681 21.9531 21.7388C22.1275 21.6088 22.3063 21.4838 22.4869 21.3631C22.6681 21.2419 22.8525 21.1263 23.0394 21.0144C23.2256 20.9019 23.415 20.7956 23.6075 20.6931C23.7994 20.59 23.9938 20.4925 24.1906 20.3994C24.3875 20.3069 24.5863 20.2188 24.7881 20.135C24.9888 20.0525 25.1919 19.9744 25.3969 19.9006C25.6025 19.8275 25.8088 19.7594 26.0175 19.6963C26.2256 19.6331 26.4356 19.5756 26.6469 19.5225C26.8581 19.4694 27.0706 19.4219 27.2844 19.3794C27.4975 19.3369 27.7125 19.3 27.9281 19.2681C28.1431 19.2363 28.3594 19.21 28.5763 19.1881C28.7931 19.1669 29.01 19.1506 29.2269 19.14C29.445 19.1294 29.6625 19.1244 29.88 19.1244C30.0981 19.1244 30.3156 19.1294 30.5338 19.14C30.7513 19.1506 30.9675 19.1669 31.1844 19.1881C31.4013 19.21 31.6175 19.2363 31.8331 19.2681C32.0481 19.3 32.2631 19.3369 32.4769 19.3794C32.69 19.4219 32.9025 19.4694 33.1138 19.5225C33.325 19.5756 33.535 19.6331 33.7431 19.6963C33.9513 19.7594 34.1581 19.8275 34.3638 19.9006C34.5688 19.9744 34.7713 20.0525 34.9731 20.135C35.1744 20.2188 35.3731 20.3069 35.57 20.3994C35.7669 20.4925 35.9613 20.59 36.1538 20.6931C36.3456 20.7956 36.5344 20.9019 36.7219 21.0144C36.9081 21.1263 37.0925 21.2419 37.2738 21.3631C37.4544 21.4838 37.6325 21.6088 37.8075 21.7388C37.9825 21.8681 38.1538 22.0019 38.3225 22.1394C38.4906 22.2775 38.6556 22.4194 38.8169 22.5656C38.9788 22.7119 39.1363 22.8613 39.29 23.015C39.4438 23.1688 39.5944 23.3269 39.7406 23.4875C39.8869 23.6488 40.0294 23.8125 40.1675 23.9813C40.305 24.1494 40.4388 24.3206 40.5688 24.495C40.6988 24.67 40.8244 24.8475 40.9456 25.0281C41.0663 25.2094 41.1825 25.3925 41.295 25.5794C41.4069 25.7656 41.5144 25.955 41.6163 26.1463C41.7188 26.3388 41.8169 26.5325 41.91 26.7288C42.0031 26.9256 42.0913 27.1238 42.175 27.325C42.2581 27.5256 42.3369 27.7288 42.4094 27.9338C42.4831 28.1381 42.5513 28.3444 42.6144 28.5519C42.6781 28.76 42.7356 28.97 42.7888 29.1806C42.8419 29.3913 42.8894 29.6038 42.9319 29.8169C42.9744 30.03 43.0119 30.2444 43.0444 30.4594C43.0756 30.6744 43.1025 30.8906 43.1238 31.1063C43.145 31.3231 43.1613 31.5394 43.1719 31.7569C43.1825 31.9738 43.1881 32.1913 43.1881 32.4088Z" stroke="url(#paint1_linear_21_256)" stroke-width="2.13834"/>
<mask id="mask2_21_256" style="mask-type:luminance" maskUnits="userSpaceOnUse" x="0" y="2" width="60" height="61">
<path d="M0 2.71814H60V62.2381H0V2.71814Z" fill="white"/>
</mask>
<g mask="url(#mask2_21_256)">
<path d="M58.9938 32.4394C58.9938 48.3588 45.9969 61.2707 29.9556 61.2707C13.915 61.2707 0.918125 48.3588 0.918125 32.4394C0.918125 16.5206 13.915 3.60876 29.9556 3.60876C45.9969 3.60876 58.9938 16.5206 58.9938 32.4394Z" stroke="url(#paint2_linear_21_256)" stroke-width="2.13834"/>
</g>
<mask id="mask3_21_256" style="mask-type:luminance" maskUnits="userSpaceOnUse" x="3" y="6" width="53" height="53">
<path d="M3.84 6.5H56V58.34H3.84V6.5Z" fill="white"/>
</mask>
<g mask="url(#mask3_21_256)">
<mask id="mask4_21_256" style="mask-type:luminance" maskUnits="userSpaceOnUse" x="3" y="6" width="53" height="53">
<path fill-rule="evenodd" clip-rule="evenodd" d="M29.8769 58.2331C44.2531 58.2331 55.9069 46.66 55.9069 32.3831C55.9069 18.1069 44.2531 6.53375 29.8769 6.53375C15.5006 6.53375 3.84562 18.1069 3.84562 32.3831C3.84562 46.66 15.5006 58.2331 29.8769 58.2331ZM29.8412 48.1425C38.5869 48.1425 45.6762 41.0713 45.6762 32.3488C45.6762 23.6269 38.5869 16.5556 29.8412 16.5556C21.0969 16.5556 14.0075 23.6269 14.0075 32.3488C14.0075 41.0713 21.0969 48.1425 29.8412 48.1425ZM11.9544 37.6713C12.0644 38.0306 12.0387 38.3525 11.88 38.6381C11.7194 38.9244 11.4419 39.1288 11.0475 39.2506L8.77 39.9475C8.28062 40.0988 7.88062 40.115 7.57125 39.995C7.2625 39.8744 7.04375 39.6063 6.91625 39.1894C6.805 38.8256 6.815 38.5025 6.94562 38.22C7.075 37.9356 7.32687 37.7363 7.70125 37.6213L8.555 37.3588L8.8575 38.3419L8.12562 38.5669C7.98437 38.6094 7.89187 38.6563 7.84937 38.7075C7.80625 38.7588 7.79687 38.8269 7.82312 38.9113C7.84937 39 7.89937 39.0513 7.97187 39.065C8.04437 39.0788 8.14 39.0675 8.25812 39.0306L10.7344 38.27C10.8656 38.2319 10.9544 38.1844 11.0025 38.1269C11.05 38.0688 11.0625 38.0019 11.0394 37.9256C10.9919 37.7719 10.8425 37.7338 10.5912 37.8094L9.70062 38.0819L9.39562 37.0881L10.3287 36.8025C11.1562 36.55 11.6981 36.8394 11.9544 37.6713ZM11.0431 35.6506C11.2656 35.4019 11.35 35.0706 11.295 34.6569C11.2406 34.2438 11.0731 33.9469 10.7937 33.7669C10.5125 33.585 10.1425 33.5244 9.6825 33.5838L7.24312 33.9125C6.80187 33.9706 6.48375 34.1231 6.28875 34.3681C6.0925 34.6119 6.0225 34.9406 6.07687 35.3538C6.13187 35.7675 6.28625 36.0663 6.54062 36.2494C6.79375 36.435 7.14125 36.4988 7.5825 36.44L10.0219 36.1119C10.4781 36.0519 10.8187 35.8981 11.0431 35.6506ZM10.21 34.6119C10.2937 34.6319 10.3412 34.6881 10.3537 34.7819C10.3662 34.8756 10.3369 34.9456 10.2662 34.9938C10.1956 35.04 10.0869 35.0725 9.94 35.0919L7.44187 35.4256C7.1825 35.4594 7.04125 35.3906 7.01812 35.2188C7.00625 35.1275 7.03312 35.0625 7.1 35.0256C7.16562 34.9869 7.25312 34.9594 7.3625 34.9431L9.86812 34.6094C10.0112 34.59 10.1256 34.5906 10.21 34.6119ZM11.0469 32.7688L5.88187 32.5888L5.91937 31.5238L8.40625 31.1338L5.935 31.0494L5.97187 30.0531L11.1375 30.2331L11.1 31.24L8.49625 31.6694L11.0819 31.7594L11.0469 32.7688ZM6.16187 28.5613L11.2369 29.5419L11.4356 28.5188L9.13187 28.0738L9.3175 27.1169L8.34437 26.9294L8.15875 27.8856L7.35 27.7294L7.54625 26.72L6.55687 26.5288L6.16187 28.5613ZM11.8162 26.9238L6.8925 25.3581L7.195 24.4069L12.1187 25.9725L11.8162 26.9238ZM8.26187 21.8063L7.6575 23.0969L12.335 25.2906L12.9237 24.035C13.1019 23.6575 13.1131 23.3319 12.9581 23.06C12.8019 22.7881 12.4919 22.545 12.0275 22.3313L9.83437 21.3138C9.46875 21.1494 9.155 21.1069 8.89312 21.1863C8.63 21.2663 8.42 21.4725 8.26187 21.8063ZM11.895 23.4256C12.0612 23.5038 12.1044 23.6269 12.0244 23.7963L11.9506 23.9581L8.91687 22.535L8.965 22.4319C9.0075 22.3419 9.04812 22.28 9.08687 22.2463C9.12375 22.2113 9.17312 22.1981 9.2325 22.2069C9.29312 22.2163 9.37562 22.245 9.48187 22.2938L11.895 23.4256ZM13.7606 22.4256L9.48375 19.5269L10.6475 17.8125L11.475 18.3744L10.9025 19.2169L11.735 19.7788L12.2837 18.9731L13.0869 19.5188L12.5381 20.3244L13.5194 20.9894L14.1294 20.0938L14.9619 20.6581L13.7606 22.4256ZM11.5475 16.6644L15.315 20.1969L16.0069 19.46L14.1194 17.69L16.3625 19.0813L17.0519 18.3469L13.2837 14.815L12.6 15.5438L14.4006 17.2319L12.2762 15.8881L11.5475 16.6644ZM17.9356 17.6188L15.3694 14.3281L14.8869 14.7044L14.2769 13.9225L16.0612 12.5344L16.6712 13.3156L16.1856 13.6919L18.7525 16.9825L17.9356 17.6188ZM21.3119 15.0438C21.5962 15.1706 21.9519 15.14 22.3806 14.9506C22.7725 14.7756 23.0006 14.5313 23.0644 14.2169C23.1294 13.9031 23.0594 13.5131 22.8525 13.0481C22.76 12.8381 22.655 12.6688 22.5369 12.5394C22.4181 12.4113 22.2912 12.3094 22.1575 12.235C22.0231 12.1606 21.8644 12.0894 21.6831 12.0206L20.8981 11.7369C20.6487 11.6506 20.49 11.5294 20.4206 11.3738C20.3912 11.305 20.385 11.2425 20.4025 11.1856C20.42 11.1294 20.4662 11.0844 20.54 11.0506C20.6025 11.0244 20.6587 11.0213 20.71 11.0425C20.7619 11.0638 20.8 11.1056 20.8269 11.1669L20.9775 11.4875L21.9425 11.0613C21.7287 10.5831 21.4787 10.2719 21.1925 10.1288C20.9062 9.98563 20.55 10.0088 20.1237 10.1975C19.7687 10.355 19.545 10.58 19.4531 10.8731C19.3619 11.1663 19.405 11.5144 19.5831 11.9169C19.7494 12.2919 20.0575 12.5631 20.5087 12.7306L21.0969 12.9556C21.305 13.035 21.4531 13.0963 21.54 13.1388C21.6281 13.1794 21.7125 13.2419 21.7919 13.3269C21.8725 13.4113 21.9481 13.5319 22.0169 13.6869C22.0681 13.8019 22.0887 13.8925 22.0781 13.9569C22.0675 14.0225 22.02 14.0738 21.935 14.1106C21.7844 14.1763 21.6575 14.0919 21.5531 13.8563L21.2931 13.2681L20.365 13.6819L20.5694 14.1425C20.78 14.6163 21.0275 14.9163 21.3119 15.0438ZM22.6987 9.24188L24.0194 8.8975C24.42 8.79375 24.7394 8.84875 24.9762 9.06188C25.215 9.27375 25.3987 9.6275 25.5281 10.1219C25.6587 10.62 25.6819 11.015 25.5969 11.3063C25.5119 11.5975 25.2731 11.795 24.8806 11.8969L24.475 12.0031L24.9925 13.9794L24.0056 14.2369L22.6987 9.24188ZM24.295 11.0863C24.4169 11.0544 24.5 11.0094 24.5444 10.9513C24.5881 10.8913 24.6081 10.8175 24.6025 10.7288C24.5987 10.6406 24.5769 10.5188 24.5362 10.3631C24.4812 10.155 24.4175 10.0106 24.3456 9.93125C24.2744 9.85 24.1687 9.82688 24.03 9.86188L23.9212 9.89125L24.2394 11.1019L24.295 11.0863ZM26.48 8.38438L27.0081 13.5219L29.1319 13.305L29.0281 12.3056L27.9494 12.4169L27.83 11.2381L28.8031 11.1375L28.7025 10.17L27.7294 10.2713L27.6281 9.27188L28.6412 9.16875L28.5381 8.175L26.48 8.38438ZM29.58 13.2756L30.3569 8.14625L32.1069 8.23875L32.3187 13.4213L31.3406 13.3713L31.3137 12.5313L30.6881 12.4969L30.5819 13.3288L29.58 13.2756ZM30.81 11.6806L31.2794 11.7075L31.1919 9.06813L31.1444 9.06563L30.81 11.6806ZM33.9681 8.46938L32.8494 13.5113L33.8544 13.7338L34.395 11.2906L34.4081 13.8556L35.45 14.0863L35.3762 11.2006L36.4525 9.0175L35.4369 8.7925L34.5194 10.7081L34.9675 8.68875L33.9681 8.46938ZM35.845 14.2425L37.7244 9.43063L39.655 10.1831L39.2887 11.1163L38.34 10.7475L37.9762 11.6831L38.8862 12.0356L38.5306 12.9413L37.6212 12.5894L37.1919 13.6913L38.2019 14.0838L37.8362 15.0188L35.845 14.2425ZM42.3387 11.6013L40.9656 10.8038L38.3669 15.2681L39.2737 15.7956L40.4587 13.7606C40.5862 13.835 40.6637 13.9031 40.6925 13.965C40.7219 14.0269 40.7006 14.1206 40.6287 14.2456L39.6131 15.9919L40.4856 16.5006L41.4769 14.8181C41.5844 14.6325 41.6394 14.4694 41.6412 14.3275C41.6425 14.1844 41.5837 14.0594 41.4637 13.9513C41.66 13.9925 41.8325 13.9606 41.9812 13.8563C42.1294 13.7519 42.2769 13.5725 42.4237 13.3181C42.5844 13.0425 42.6956 12.8044 42.7581 12.6031C42.8212 12.4 42.8219 12.2144 42.7606 12.0463C42.6981 11.8769 42.5575 11.7288 42.3387 11.6013ZM41.5512 12.8119C41.3937 13.0825 41.2525 13.1819 41.1269 13.1088L40.915 12.9844L41.395 12.1606L41.6019 12.2825C41.655 12.3125 41.6881 12.3469 41.7025 12.3856C41.7181 12.4225 41.7137 12.4744 41.6894 12.5394C41.6662 12.605 41.62 12.6956 41.5512 12.8119ZM41.9344 17.6931C41.5719 17.3944 41.3837 17.0894 41.3694 16.7763C41.3569 16.4656 41.5156 16.1106 41.8444 15.7113L42.1625 15.3219L42.9475 15.9681L42.5419 16.4638C42.3769 16.6619 42.3587 16.8119 42.4862 16.9169C42.5562 16.975 42.6225 16.9944 42.685 16.975C42.7462 16.9575 42.8181 16.8988 42.8994 16.8C43.0069 16.67 43.0806 16.55 43.1194 16.44C43.16 16.3288 43.1794 16.2244 43.1781 16.1275C43.1762 16.0306 43.1637 15.87 43.1406 15.6475L43.0825 15.0225C43.0275 14.5444 43.1306 14.1469 43.3925 13.83C43.6719 13.4894 43.9631 13.295 44.265 13.2469C44.5687 13.1981 44.8706 13.2969 45.1719 13.5438C45.5306 13.8394 45.71 14.1469 45.71 14.4663C45.7112 14.7856 45.5462 15.1488 45.2144 15.555L44.4 14.8844L44.6206 14.6063C44.6631 14.5556 44.6819 14.5025 44.6787 14.4475C44.675 14.3913 44.6475 14.3413 44.5962 14.2988C44.5331 14.2463 44.4706 14.225 44.4112 14.2356C44.3525 14.245 44.2994 14.2781 44.2519 14.3363C44.1437 14.4675 44.1075 14.6631 44.1431 14.9244L44.2412 15.7513C44.2625 15.9456 44.2687 16.1194 44.2625 16.2731C44.255 16.4269 44.2206 16.585 44.1587 16.7475C44.0987 16.9113 43.995 17.0819 43.8487 17.2588C43.525 17.6519 43.2081 17.8906 42.8969 17.9738C42.5875 18.0588 42.2669 17.965 41.9344 17.6931ZM48.9087 17.415L44.425 20.0331L45.0137 20.8463L45.7237 20.4094L46.09 20.915L45.4562 21.4613L46.0287 22.2556L49.9319 18.835L48.9087 17.415ZM46.7156 20.3694L46.44 19.9881L48.6856 18.6075L48.7125 18.6469L46.7156 20.3694ZM46.7862 23.8213C46.6181 23.4831 46.59 23.16 46.7012 22.8519C46.8131 22.5444 47.0525 22.2994 47.4225 22.115L49.5569 21.0575C50.0162 20.83 50.4081 20.7506 50.7319 20.8194C51.0569 20.8869 51.3162 21.1156 51.5112 21.5056C51.6812 21.8469 51.7244 22.1681 51.6412 22.47C51.5575 22.77 51.34 23.0081 50.9887 23.1825L50.1906 23.5775L49.7319 22.6556L50.4162 22.3163C50.5487 22.2513 50.6325 22.1906 50.6681 22.1338C50.7031 22.075 50.7012 22.0063 50.6625 21.9269C50.6219 21.8444 50.5644 21.8019 50.4906 21.7994C50.4162 21.7981 50.3231 21.825 50.2119 21.8794L47.8894 23.0288C47.7675 23.0888 47.6881 23.1519 47.6506 23.2175C47.6137 23.2819 47.6125 23.3506 47.6481 23.4213C47.7181 23.5644 47.8706 23.5775 48.1044 23.4606L48.9419 23.0475L49.4031 23.98L48.5281 24.4119C47.7519 24.7969 47.1712 24.6 46.7862 23.8213ZM52.6594 24.3356L47.5712 25.3663L47.8625 26.325L48.6794 26.14L48.8625 26.7388L48.0856 27.0513L48.3694 27.9894L53.1681 26.0125L52.6594 24.3356ZM49.6287 26.4231L49.4906 25.9756L52.0656 25.395L52.0787 25.4406L49.6287 26.4231ZM53.5969 27.8469L53.78 29.2619C53.8281 29.6275 53.7619 29.9138 53.5812 30.12C53.4025 30.3281 53.1156 30.4606 52.7194 30.5175L50.32 30.8381C49.8144 30.9088 49.4225 30.8706 49.1456 30.7244C48.8675 30.5775 48.7025 30.2981 48.6494 29.8844L48.4719 28.5069L53.5969 27.8469ZM49.535 29.6038C49.5594 29.7894 49.6631 29.87 49.8456 29.8475L52.4887 29.5056C52.6037 29.4913 52.6887 29.4713 52.7437 29.4444C52.8 29.4194 52.835 29.3819 52.8494 29.3306C52.8637 29.2813 52.8644 29.2069 52.8519 29.1081L52.8362 28.9944L49.5112 29.4238L49.535 29.6038ZM53.975 31.8394L48.81 31.6913L48.7462 33.8269L49.7512 33.8556L49.7831 32.7725L50.9681 32.8069L50.9412 33.7819L51.9144 33.8081L51.9412 32.8331L52.9431 32.8625L52.9144 33.88L53.9137 33.9088L53.975 31.8394ZM48.7687 34.3369L53.8094 35.4706L53.4619 37.0075L50.2931 36.7369L53.2737 37.85L52.9237 39.4L47.8831 38.2656L48.09 37.3438L51.725 38.1625L48.2225 36.7663L48.4244 35.86L52.2 36.0644L48.5644 35.2456L48.7687 34.3369ZM12.3469 46.9063L14.7425 47.7394L13.6775 45.4269L15.1794 43.4031L12.6631 43.6838L11.2175 41.5969L10.7531 44.1256L8.3325 44.8575L10.5287 46.0956L10.4975 48.6413L12.3469 46.9063ZM21.7356 54.2825L19.5662 52.97L17.3956 54.2825L17.9556 51.7988L16.0662 50.1319L18.5862 49.9188L19.5662 47.5419L20.5456 49.8831L23.0662 50.1319L21.1762 51.7988L21.7356 54.2825ZM29.7006 55.5969L31.8706 56.91L31.31 54.4263L33.2 52.7588L30.6806 52.5113L29.7006 50.1694L28.7206 52.5463L26.2006 52.7588L28.0906 54.4263L27.5306 56.91L29.7006 55.5969ZM48.6944 48.5688L46.93 46.7481L44.4975 47.4656L45.6712 45.2063L44.2687 43.1131L46.76 43.5481L48.3131 41.4988L48.6644 44.0125L51.0381 44.8938L48.7856 46.0256L48.6944 48.5688ZM38.9994 52.97L41.1694 54.2825L40.6094 51.7988L42.4994 50.1319L39.9794 49.8831L38.9994 47.5419L38.0194 49.9188L35.4994 50.1319L37.3894 51.7988L36.8294 54.2825L38.9994 52.97Z" fill="white"/>
</mask>
<g mask="url(#mask4_21_256)">
<path d="M3.84562 6.53375V58.2331H55.9069V6.53375H3.84562Z" fill="url(#paint3_linear_21_256)"/>
</g>
</g>
</g>
<path d="M83.632 15.12C83.056 15.12 82.544 15.28 82.096 15.6C81.664 15.904 81.304 16.344 81.016 16.92C80.728 17.496 80.512 18.168 80.368 18.936C80.24 19.704 80.176 20.544 80.176 21.456C80.176 22.784 80.312 23.92 80.584 24.864C80.856 25.792 81.256 26.504 81.784 27C82.328 27.496 82.984 27.744 83.752 27.744C84.312 27.744 84.848 27.664 85.36 27.504C85.872 27.344 86.384 27.152 86.896 26.928V29.448C86.384 29.72 85.84 29.92 85.264 30.048C84.688 30.176 84.064 30.24 83.392 30.24C82.032 30.24 80.888 29.888 79.96 29.184C79.032 28.48 78.328 27.472 77.848 26.16C77.368 24.848 77.128 23.272 77.128 21.432C77.128 20.168 77.264 19 77.536 17.928C77.808 16.856 78.216 15.928 78.76 15.144C79.304 14.344 79.968 13.728 80.752 13.296C81.552 12.848 82.472 12.624 83.512 12.624C84.2 12.624 84.872 12.712 85.528 12.888C86.2 13.048 86.824 13.304 87.4 13.656L86.488 16.032C86.056 15.76 85.6 15.544 85.12 15.384C84.64 15.208 84.144 15.12 83.632 15.12ZM101.235 21.408C101.235 22.72 101.107 23.92 100.851 25.008C100.611 26.08 100.227 27.008 99.6993 27.792C99.1873 28.576 98.5393 29.184 97.7553 29.616C96.9713 30.032 96.0353 30.24 94.9473 30.24C93.8753 30.24 92.9393 30.032 92.1393 29.616C91.3393 29.184 90.6833 28.576 90.1713 27.792C89.6593 26.992 89.2753 26.056 89.0193 24.984C88.7793 23.896 88.6593 22.696 88.6593 21.384C88.6593 19.496 88.8913 17.904 89.3553 16.608C89.8193 15.296 90.5153 14.304 91.4433 13.632C92.3873 12.944 93.5553 12.6 94.9473 12.6C96.3873 12.6 97.5713 12.968 98.4993 13.704C99.4273 14.44 100.115 15.472 100.563 16.8C101.011 18.112 101.235 19.648 101.235 21.408ZM91.7313 21.408C91.7313 22.768 91.8433 23.92 92.0673 24.864C92.3073 25.792 92.6673 26.496 93.1473 26.976C93.6273 27.456 94.2273 27.696 94.9473 27.696C95.6673 27.696 96.2593 27.464 96.7233 27C97.2033 26.52 97.5553 25.816 97.7793 24.888C98.0193 23.944 98.1393 22.784 98.1393 21.408C98.1393 19.344 97.8753 17.784 97.3473 16.728C96.8353 15.656 96.0353 15.12 94.9473 15.12C94.2113 15.12 93.6033 15.36 93.1233 15.84C92.6593 16.32 92.3073 17.032 92.0673 17.976C91.8433 18.904 91.7313 20.048 91.7313 21.408ZM115.976 30H112.4L106.664 17.064H106.568C106.6 17.448 106.624 17.824 106.64 18.192C106.656 18.544 106.672 18.896 106.688 19.248C106.704 19.584 106.712 19.92 106.712 20.256C106.728 20.576 106.744 20.88 106.76 21.168V30H104.024V12.864H107.576L113.288 25.584H113.384C113.368 25.232 113.352 24.88 113.336 24.528C113.32 24.16 113.304 23.808 113.288 23.472C113.272 23.136 113.256 22.808 113.24 22.488C113.224 22.168 113.216 21.864 113.216 21.576V12.864H115.976V30ZM122.28 30H119.328V12.864H127.152V15.336H122.28V20.52H126.816V22.992H122.28V30ZM134.875 30H128.611V28.392L130.267 27.768V15.096L128.611 14.472V12.864H134.875V14.472L133.219 15.096V27.768L134.875 28.392V30ZM148.37 21.192C148.37 23.112 148.09 24.728 147.53 26.04C146.986 27.336 146.186 28.32 145.13 28.992C144.09 29.664 142.818 30 141.314 30H137.282V12.864H141.602C143.042 12.864 144.266 13.184 145.274 13.824C146.282 14.448 147.05 15.376 147.578 16.608C148.106 17.84 148.37 19.368 148.37 21.192ZM145.298 21.312C145.298 19.952 145.154 18.832 144.866 17.952C144.594 17.072 144.178 16.424 143.618 16.008C143.074 15.576 142.386 15.36 141.554 15.36H140.234V27.504H141.314C142.674 27.504 143.674 26.992 144.314 25.968C144.97 24.928 145.298 23.376 145.298 21.312ZM159.005 30H151.157V12.864H159.005V15.336H154.109V19.848H158.669V22.32H154.109V27.504H159.005V30ZM173.702 30H170.126L164.39 17.064H164.294C164.326 17.448 164.35 17.824 164.366 18.192C164.382 18.544 164.398 18.896 164.414 19.248C164.43 19.584 164.438 19.92 164.438 20.256C164.454 20.576 164.47 20.88 164.486 21.168V30H161.75V12.864H165.302L171.014 25.584H171.11C171.094 25.232 171.078 24.88 171.062 24.528C171.046 24.16 171.03 23.808 171.014 23.472C170.998 23.136 170.982 22.808 170.966 22.488C170.95 22.168 170.942 21.864 170.942 21.576V12.864H173.702V30ZM182.167 30H179.239V15.36H175.711V12.864H185.671V15.36H182.167V30ZM85.984 49.176C85.984 50.168 85.776 51.048 85.36 51.816C84.96 52.584 84.376 53.184 83.608 53.616C82.856 54.032 81.952 54.24 80.896 54.24C80.384 54.24 79.888 54.208 79.408 54.144C78.944 54.08 78.504 53.984 78.088 53.856C77.688 53.728 77.28 53.56 76.864 53.352V50.472C77.488 50.824 78.152 51.112 78.856 51.336C79.56 51.544 80.216 51.648 80.824 51.648C81.32 51.648 81.728 51.552 82.048 51.36C82.384 51.152 82.632 50.88 82.792 50.544C82.952 50.208 83.032 49.832 83.032 49.416C83.032 48.968 82.952 48.584 82.792 48.264C82.632 47.928 82.36 47.616 81.976 47.328C81.592 47.024 81.064 46.696 80.392 46.344C79.896 46.072 79.44 45.792 79.024 45.504C78.608 45.2 78.248 44.856 77.944 44.472C77.64 44.088 77.408 43.64 77.248 43.128C77.088 42.616 77.008 42.016 77.008 41.328C77.008 40.368 77.2 39.536 77.584 38.832C77.984 38.128 78.552 37.584 79.288 37.2C80.024 36.816 80.888 36.624 81.88 36.624C82.616 36.624 83.32 36.72 83.992 36.912C84.664 37.088 85.304 37.336 85.912 37.656L85.024 40.152C84.464 39.832 83.928 39.6 83.416 39.456C82.904 39.296 82.4 39.216 81.904 39.216C81.472 39.216 81.112 39.304 80.824 39.48C80.536 39.64 80.312 39.872 80.152 40.176C80.008 40.464 79.936 40.808 79.936 41.208C79.936 41.672 80.016 42.064 80.176 42.384C80.336 42.704 80.608 43.008 80.992 43.296C81.376 43.584 81.912 43.904 82.6 44.256C83.352 44.656 83.976 45.088 84.472 45.552C84.984 46 85.36 46.52 85.6 47.112C85.856 47.688 85.984 48.376 85.984 49.176ZM92.6613 36.864C94.4533 36.864 95.7813 37.312 96.6453 38.208C97.5093 39.088 97.9413 40.376 97.9413 42.072C97.9413 42.904 97.8373 43.664 97.6293 44.352C97.4213 45.04 97.0933 45.64 96.6453 46.152C96.2133 46.648 95.6533 47.032 94.9653 47.304C94.2933 47.56 93.4773 47.688 92.5173 47.688H91.4133V54H88.4613V36.864H92.6613ZM92.5173 39.312H91.4133V45.24H92.2293C92.8373 45.24 93.3413 45.136 93.7413 44.928C94.1573 44.72 94.4693 44.392 94.6773 43.944C94.8853 43.48 94.9893 42.88 94.9893 42.144C94.9893 41.152 94.7813 40.432 94.3653 39.984C93.9653 39.536 93.3493 39.312 92.5173 39.312ZM108.286 54H100.438V36.864H108.286V39.336H103.39V43.848H107.95V46.32H103.39V51.504H108.286V54ZM119.024 54L117.968 49.416H113.576L112.52 54H109.352L113.912 36.84H117.584L122.168 54H119.024ZM116.312 42.096C116.232 41.776 116.16 41.448 116.096 41.112C116.032 40.776 115.968 40.448 115.904 40.128C115.856 39.792 115.808 39.48 115.76 39.192C115.728 39.48 115.68 39.792 115.616 40.128C115.552 40.448 115.488 40.776 115.424 41.112C115.36 41.432 115.288 41.752 115.208 42.072L114.128 46.896H117.416L116.312 42.096ZM134.724 54H131.436L128.004 46.584L126.804 47.76V54H123.852V36.864H126.804V45C126.948 44.68 127.132 44.32 127.356 43.92C127.58 43.52 127.836 43.08 128.124 42.6L131.436 36.864H134.628L130.068 44.448L134.724 54ZM144.145 54H136.297V36.864H144.145V39.336H139.249V43.848H143.809V46.32H139.249V51.504H144.145V54ZM150.851 36.864C152.115 36.864 153.163 37.048 153.995 37.416C154.827 37.784 155.443 38.336 155.843 39.072C156.243 39.792 156.443 40.704 156.443 41.808C156.443 42.56 156.339 43.232 156.131 43.824C155.939 44.416 155.651 44.928 155.267 45.36C154.883 45.776 154.411 46.128 153.851 46.416L157.619 54H154.331L151.283 47.136H149.843V54H146.891V36.864H150.851ZM150.803 39.336H149.843V44.808H150.899C151.459 44.808 151.923 44.704 152.291 44.496C152.675 44.288 152.963 43.968 153.155 43.536C153.347 43.104 153.443 42.576 153.443 41.952C153.443 41.328 153.347 40.824 153.155 40.44C152.963 40.056 152.667 39.776 152.267 39.6C151.883 39.424 151.395 39.336 150.803 39.336ZM167.711 49.176C167.711 50.168 167.503 51.048 167.087 51.816C166.687 52.584 166.103 53.184 165.335 53.616C164.583 54.032 163.679 54.24 162.623 54.24C162.111 54.24 161.615 54.208 161.135 54.144C160.671 54.08 160.231 53.984 159.815 53.856C159.415 53.728 159.007 53.56 158.591 53.352V50.472C159.215 50.824 159.879 51.112 160.583 51.336C161.287 51.544 161.943 51.648 162.551 51.648C163.047 51.648 163.455 51.552 163.775 51.36C164.111 51.152 164.359 50.88 164.519 50.544C164.679 50.208 164.759 49.832 164.759 49.416C164.759 48.968 164.679 48.584 164.519 48.264C164.359 47.928 164.087 47.616 163.703 47.328C163.319 47.024 162.791 46.696 162.119 46.344C161.623 46.072 161.167 45.792 160.751 45.504C160.335 45.2 159.975 44.856 159.671 44.472C159.367 44.088 159.135 43.64 158.975 43.128C158.815 42.616 158.735 42.016 158.735 41.328C158.735 40.368 158.927 39.536 159.311 38.832C159.711 38.128 160.279 37.584 161.015 37.2C161.751 36.816 162.615 36.624 163.607 36.624C164.343 36.624 165.047 36.72 165.719 36.912C166.391 37.088 167.031 37.336 167.639 37.656L166.751 40.152C166.191 39.832 165.655 39.6 165.143 39.456C164.631 39.296 164.127 39.216 163.631 39.216C163.199 39.216 162.839 39.304 162.551 39.48C162.263 39.64 162.039 39.872 161.879 40.176C161.735 40.464 161.663 40.808 161.663 41.208C161.663 41.672 161.743 42.064 161.903 42.384C162.063 42.704 162.335 43.008 162.719 43.296C163.103 43.584 163.639 43.904 164.327 44.256C165.079 44.656 165.703 45.088 166.199 45.552C166.711 46 167.087 46.52 167.327 47.112C167.583 47.688 167.711 48.376 167.711 49.176ZM182.891 54L181.835 49.416H177.443L176.387 54H173.219L177.779 36.84H181.451L186.035 54H182.891ZM180.179 42.096C180.099 41.776 180.027 41.448 179.963 41.112C179.899 40.776 179.835 40.448 179.771 40.128C179.723 39.792 179.675 39.48 179.627 39.192C179.595 39.48 179.547 39.792 179.483 40.128C179.419 40.448 179.355 40.776 179.291 41.112C179.227 41.432 179.155 41.752 179.075 42.072L177.995 46.896H181.283L180.179 42.096ZM193.507 39.12C192.931 39.12 192.419 39.28 191.971 39.6C191.539 39.904 191.179 40.344 190.891 40.92C190.603 41.496 190.387 42.168 190.243 42.936C190.115 43.704 190.051 44.544 190.051 45.456C190.051 46.784 190.187 47.92 190.459 48.864C190.731 49.792 191.131 50.504 191.659 51C192.203 51.496 192.859 51.744 193.627 51.744C194.187 51.744 194.723 51.664 195.235 51.504C195.747 51.344 196.259 51.152 196.771 50.928V53.448C196.259 53.72 195.715 53.92 195.139 54.048C194.563 54.176 193.939 54.24 193.267 54.24C191.907 54.24 190.763 53.888 189.835 53.184C188.907 52.48 188.203 51.472 187.723 50.16C187.243 48.848 187.003 47.272 187.003 45.432C187.003 44.168 187.139 43 187.411 41.928C187.683 40.856 188.091 39.928 188.635 39.144C189.179 38.344 189.843 37.728 190.627 37.296C191.427 36.848 192.347 36.624 193.387 36.624C194.075 36.624 194.747 36.712 195.403 36.888C196.075 37.048 196.699 37.304 197.275 37.656L196.363 40.032C195.931 39.76 195.475 39.544 194.995 39.384C194.515 39.208 194.019 39.12 193.507 39.12ZM207.547 54L206.491 49.416H202.099L201.043 54H197.875L202.435 36.84H206.107L210.691 54H207.547ZM204.835 42.096C204.755 41.776 204.683 41.448 204.619 41.112C204.555 40.776 204.491 40.448 204.427 40.128C204.379 39.792 204.331 39.48 204.283 39.192C204.251 39.48 204.203 39.792 204.139 40.128C204.075 40.448 204.011 40.776 203.947 41.112C203.883 41.432 203.811 41.752 203.731 42.072L202.651 46.896H205.939L204.835 42.096ZM223.463 45.192C223.463 47.112 223.183 48.728 222.623 50.04C222.079 51.336 221.279 52.32 220.223 52.992C219.183 53.664 217.911 54 216.407 54H212.375V36.864H216.695C218.135 36.864 219.359 37.184 220.367 37.824C221.375 38.448 222.143 39.376 222.671 40.608C223.199 41.84 223.463 43.368 223.463 45.192ZM220.391 45.312C220.391 43.952 220.247 42.832 219.959 41.952C219.687 41.072 219.271 40.424 218.711 40.008C218.167 39.576 217.479 39.36 216.647 39.36H215.327V51.504H216.407C217.767 51.504 218.767 50.992 219.407 49.968C220.063 48.928 220.391 47.376 220.391 45.312ZM234.098 54H226.25V36.864H234.098V39.336H229.202V43.848H233.762V46.32H229.202V51.504H234.098V54ZM243.204 54L239.508 40.488H239.412C239.444 40.952 239.468 41.432 239.484 41.928C239.516 42.424 239.54 42.896 239.556 43.344C239.572 43.792 239.58 44.208 239.58 44.592V54H236.844V36.864H240.924L244.476 49.704H244.524L248.1 36.864H252.156V54H249.348V44.544C249.348 44.16 249.348 43.744 249.348 43.296C249.364 42.848 249.388 42.384 249.42 41.904C249.452 41.424 249.476 40.952 249.492 40.488H249.396L245.652 54H243.204ZM259.604 44.304L262.268 36.864H265.34L261.068 47.352V54H258.116V47.448L253.844 36.864H256.964L259.604 44.304Z" fill="white"/>
<defs>
<linearGradient id="paint0_linear_21_256" x1="29.372" y1="18.437" x2="42.5192" y2="38.3927" gradientUnits="userSpaceOnUse">
<stop stop-color="#D10F87"/>
<stop offset="0.125" stop-color="#D10F87"/>
<stop offset="0.128906" stop-color="#D21086"/>
<stop offset="0.132813" stop-color="#D21186"/>
<stop offset="0.136719" stop-color="#D21286"/>
<stop offset="0.140625" stop-color="#D21386"/>
<stop offset="0.144531" stop-color="#D21486"/>
<stop offset="0.148438" stop-color="#D31585"/>
<stop offset="0.152344" stop-color="#D31585"/>
<stop offset="0.15625" stop-color="#D31685"/>
<stop offset="0.160156" stop-color="#D31785"/>
<stop offset="0.164062" stop-color="#D31785"/>
<stop offset="0.167969" stop-color="#D31885"/>
<stop offset="0.171875" stop-color="#D41984"/>
<stop offset="0.179688" stop-color="#D41A84"/>
<stop offset="0.183594" stop-color="#D41B84"/>
<stop offset="0.1875" stop-color="#D51C83"/>
<stop offset="0.191406" stop-color="#D51D83"/>
<stop offset="0.195313" stop-color="#D51E83"/>
<stop offset="0.203125" stop-color="#D51F83"/>
<stop offset="0.207031" stop-color="#D62082"/>
<stop offset="0.210938" stop-color="#D62182"/>
<stop offset="0.214844" stop-color="#D62282"/>
<stop offset="0.21875" stop-color="#D62382"/>
<stop offset="0.222656" stop-color="#D62382"/>
<stop offset="0.226563" stop-color="#D72481"/>
<stop offset="0.230469" stop-color="#D72581"/>
<stop offset="0.234375" stop-color="#D72681"/>
<stop offset="0.238281" stop-color="#D72781"/>
<stop offset="0.242188" stop-color="#D82880"/>
<stop offset="0.25" stop-color="#D82880"/>
<stop offset="0.253906" stop-color="#D82A80"/>
<stop offset="0.257813" stop-color="#D82B80"/>
<stop offset="0.261719" stop-color="#D82B7F"/>
<stop offset="0.265625" stop-color="#D92C7F"/>
<stop offset="0.269531" stop-color="#D92D7F"/>
<stop offset="0.273438" stop-color="#D92E7F"/>
<stop offset="0.277344" stop-color="#DA2F7E"/>
<stop offset="0.28125" stop-color="#DA307E"/>
<stop offset="0.285156" stop-color="#DA307E"/>
<stop offset="0.289062" stop-color="#DA317E"/>
<stop offset="0.292969" stop-color="#DA327E"/>
<stop offset="0.296875" stop-color="#DA327E"/>
<stop offset="0.300781" stop-color="#DB337D"/>
<stop offset="0.304688" stop-color="#DB347D"/>
<stop offset="0.308594" stop-color="#DB357D"/>
<stop offset="0.3125" stop-color="#DB367D"/>
<stop offset="0.316406" stop-color="#DC367C"/>
<stop offset="0.320313" stop-color="#DC377C"/>
<stop offset="0.324219" stop-color="#DC387C"/>
<stop offset="0.328125" stop-color="#DC397C"/>
<stop offset="0.332031" stop-color="#DD3A7B"/>
<stop offset="0.335938" stop-color="#DD3A7B"/>
<stop offset="0.339844" stop-color="#DD3B7B"/>
<stop offset="0.34375" stop-color="#DD3C7B"/>
<stop offset="0.347656" stop-color="#DD3D7B"/>
<stop offset="0.351563" stop-color="#DD3E7B"/>
<stop offset="0.355469" stop-color="#DE3F7A"/>
<stop offset="0.359375" stop-color="#DE3F7A"/>
<stop offset="0.363281" stop-color="#DE407A"/>
<stop offset="0.367188" stop-color="#DE417A"/>
<stop offset="0.371094" stop-color="#DF427A"/>
<stop offset="0.375" stop-color="#DF4379"/>
<stop offset="0.382813" stop-color="#DF4379"/>
<stop offset="0.386719" stop-color="#DF4579"/>
<stop offset="0.390625" stop-color="#E04678"/>
<stop offset="0.394531" stop-color="#E04678"/>
<stop offset="0.398438" stop-color="#E04778"/>
<stop offset="0.402344" stop-color="#E04878"/>
<stop offset="0.40625" stop-color="#E04978"/>
<stop offset="0.410156" stop-color="#E04A78"/>
<stop offset="0.414062" stop-color="#E14B77"/>
<stop offset="0.417969" stop-color="#E14B77"/>
<stop offset="0.421875" stop-color="#E14C77"/>
<stop offset="0.425781" stop-color="#E14D77"/>
<stop offset="0.429688" stop-color="#E14D76"/>
<stop offset="0.433594" stop-color="#E24E76"/>
<stop offset="0.4375" stop-color="#E24F76"/>
<stop offset="0.441406" stop-color="#E25076"/>
<stop offset="0.445313" stop-color="#E25176"/>
<stop offset="0.449219" stop-color="#E35175"/>
<stop offset="0.453125" stop-color="#E35275"/>
<stop offset="0.457031" stop-color="#E35375"/>
<stop offset="0.460938" stop-color="#E35475"/>
<stop offset="0.464844" stop-color="#E35575"/>
<stop offset="0.46875" stop-color="#E45574"/>
<stop offset="0.472656" stop-color="#E45674"/>
<stop offset="0.476563" stop-color="#E45774"/>
<stop offset="0.480469" stop-color="#E45874"/>
<stop offset="0.484375" stop-color="#E55973"/>
<stop offset="0.488281" stop-color="#E55A73"/>
<stop offset="0.492188" stop-color="#E55A73"/>
<stop offset="0.496094" stop-color="#E55B73"/>
<stop offset="0.5" stop-color="#E55C73"/>
<stop offset="0.503906" stop-color="#E55D72"/>
<stop offset="0.507813" stop-color="#E65E72"/>
<stop offset="0.515625" stop-color="#E65E72"/>
<stop offset="0.519531" stop-color="#E66072"/>
<stop offset="0.523438" stop-color="#E76171"/>
<stop offset="0.527344" stop-color="#E76171"/>
<stop offset="0.53125" stop-color="#E76271"/>
<stop offset="0.535156" stop-color="#E76371"/>
<stop offset="0.539062" stop-color="#E86470"/>
<stop offset="0.542969" stop-color="#E86570"/>
<stop offset="0.546875" stop-color="#E86670"/>
<stop offset="0.550781" stop-color="#E86670"/>
<stop offset="0.554688" stop-color="#E86770"/>
<stop offset="0.558594" stop-color="#E9686F"/>
<stop offset="0.5625" stop-color="#E9686F"/>
<stop offset="0.566406" stop-color="#E96A6F"/>
<stop offset="0.570312" stop-color="#E96B6F"/>
<stop offset="0.578125" stop-color="#E96B6F"/>
<stop offset="0.582031" stop-color="#EA6C6E"/>
<stop offset="0.585938" stop-color="#EA6D6E"/>
<stop offset="0.589844" stop-color="#EA6E6E"/>
<stop offset="0.59375" stop-color="#EA6F6E"/>
<stop offset="0.601562" stop-color="#EB706D"/>
<stop offset="0.605469" stop-color="#EB716D"/>
<stop offset="0.609375" stop-color="#EB726D"/>
<stop offset="0.613281" stop-color="#EB736D"/>
<stop offset="0.617188" stop-color="#EC746C"/>
<stop offset="0.621094" stop-color="#EC756C"/>
<stop offset="0.625" stop-color="#EC756C"/>
<stop offset="0.628906" stop-color="#EC766C"/>
<stop offset="0.632812" stop-color="#ED776B"/>
<stop offset="0.636719" stop-color="#ED786B"/>
<stop offset="0.640625" stop-color="#ED796B"/>
<stop offset="0.648438" stop-color="#ED796B"/>
<stop offset="0.652344" stop-color="#ED7B6B"/>
<stop offset="0.65625" stop-color="#EE7C6A"/>
<stop offset="0.660156" stop-color="#EE7C6A"/>
<stop offset="0.664062" stop-color="#EE7D6A"/>
<stop offset="0.667969" stop-color="#EE7E6A"/>
<stop offset="0.671875" stop-color="#EF7F69"/>
<stop offset="0.675781" stop-color="#EF8069"/>
<stop offset="0.679688" stop-color="#EF8169"/>
<stop offset="0.683594" stop-color="#EF8169"/>
<stop offset="0.6875" stop-color="#EF8269"/>
<stop offset="0.691406" stop-color="#F08368"/>
<stop offset="0.695312" stop-color="#F08468"/>
<stop offset="0.699219" stop-color="#F08568"/>
<stop offset="0.703125" stop-color="#F08668"/>
<stop offset="0.707031" stop-color="#F08668"/>
<stop offset="0.710938" stop-color="#F18667"/>
<stop offset="0.714844" stop-color="#F18767"/>
<stop offset="0.71875" stop-color="#F18867"/>
<stop offset="0.722656" stop-color="#F18967"/>
<stop offset="0.726562" stop-color="#F18A67"/>
<stop offset="0.733841" stop-color="#F28B66"/>
<stop offset="0.734375" stop-color="#F28B66"/>
<stop offset="0.738281" stop-color="#F28C66"/>
<stop offset="0.742188" stop-color="#F28D66"/>
<stop offset="0.746094" stop-color="#F38E65"/>
<stop offset="0.75" stop-color="#F38F65"/>
<stop offset="0.753906" stop-color="#F39065"/>
<stop offset="0.757812" stop-color="#F39065"/>
<stop offset="0.761719" stop-color="#F49164"/>
<stop offset="0.765625" stop-color="#F49264"/>
<stop offset="0.769531" stop-color="#F49364"/>
<stop offset="0.773438" stop-color="#F49464"/>
<stop offset="0.777344" stop-color="#F49463"/>
<stop offset="0.78125" stop-color="#F49563"/>
<stop offset="0.785156" stop-color="#F59663"/>
<stop offset="0.789062" stop-color="#F59763"/>
<stop offset="0.792969" stop-color="#F59763"/>
<stop offset="0.796875" stop-color="#F59863"/>
<stop offset="0.800781" stop-color="#F69962"/>
<stop offset="0.804688" stop-color="#F69A62"/>
<stop offset="0.808594" stop-color="#F69B62"/>
<stop offset="0.8125" stop-color="#F69C62"/>
<stop offset="0.816406" stop-color="#F69C62"/>
<stop offset="0.820312" stop-color="#F79D61"/>
<stop offset="0.824219" stop-color="#F79E61"/>
<stop offset="0.828125" stop-color="#F79F61"/>
<stop offset="0.832031" stop-color="#F7A061"/>
<stop offset="0.835938" stop-color="#F8A060"/>
<stop offset="0.84375" stop-color="#F8A160"/>
<stop offset="0.847656" stop-color="#F8A260"/>
<stop offset="0.851562" stop-color="#F8A360"/>
<stop offset="0.855469" stop-color="#F8A45F"/>
<stop offset="0.859375" stop-color="#F9A55F"/>
<stop offset="0.863281" stop-color="#F9A65F"/>
<stop offset="0.867188" stop-color="#F9A65F"/>
<stop offset="0.871094" stop-color="#F9A75F"/>
<stop offset="0.875" stop-color="#F9A85F"/>
<stop offset="0.878906" stop-color="#FAA95E"/>
<stop offset="0.882812" stop-color="#FAAA5E"/>
<stop offset="0.886719" stop-color="#FAAB5E"/>
<stop offset="0.890625" stop-color="#FAAB5E"/>
<stop offset="0.894531" stop-color="#FAAC5E"/>
<stop offset="0.898438" stop-color="#FBAD5D"/>
<stop offset="0.902344" stop-color="#FBAE5D"/>
<stop offset="0.90625" stop-color="#FBAF5D"/>
<stop offset="0.910156" stop-color="#FBAF5D"/>
<stop offset="0.914062" stop-color="#FCB05C"/>
<stop offset="0.917969" stop-color="#FCB15C"/>
<stop offset="0.921875" stop-color="#FCB25C"/>
<stop offset="0.925781" stop-color="#FCB25C"/>
<stop offset="0.929688" stop-color="#FCB35C"/>
<stop offset="0.933594" stop-color="#FCB45C"/>
<stop offset="0.9375" stop-color="#FDB55B"/>
<stop offset="0.941406" stop-color="#FDB65B"/>
<stop offset="0.945312" stop-color="#FDB75B"/>
<stop offset="0.949219" stop-color="#FDB75B"/>
<stop offset="0.953125" stop-color="#FEB85A"/>
<stop offset="0.957031" stop-color="#FEB95A"/>
<stop offset="0.960938" stop-color="#FEBA5A"/>
<stop offset="0.964844" stop-color="#FEBB5A"/>
<stop offset="0.96875" stop-color="#FFBB59"/>
<stop offset="0.976562" stop-color="#FFBC59"/>
<stop offset="0.984375" stop-color="#FFBD59"/>
<stop offset="1" stop-color="#FFBD59"/>
</linearGradient>
<linearGradient id="paint1_linear_21_256" x1="28.234" y1="13.7375" x2="40.5674" y2="47.807" gradientUnits="userSpaceOnUse">
<stop stop-color="#D10F87"/>
<stop offset="0.125" stop-color="#D10F87"/>
<stop offset="0.132812" stop-color="#D10F87"/>
<stop offset="0.136719" stop-color="#D21086"/>
<stop offset="0.140625" stop-color="#D21186"/>
<stop offset="0.144531" stop-color="#D21286"/>
<stop offset="0.148437" stop-color="#D21286"/>
<stop offset="0.152344" stop-color="#D21386"/>
<stop offset="0.15625" stop-color="#D21486"/>
<stop offset="0.160156" stop-color="#D31585"/>
<stop offset="0.164063" stop-color="#D31685"/>
<stop offset="0.171875" stop-color="#D31685"/>
<stop offset="0.175781" stop-color="#D31885"/>
<stop offset="0.179688" stop-color="#D41984"/>
<stop offset="0.183594" stop-color="#D41984"/>
<stop offset="0.1875" stop-color="#D41A84"/>
<stop offset="0.191406" stop-color="#D41B84"/>
<stop offset="0.195312" stop-color="#D51C83"/>
<stop offset="0.199219" stop-color="#D51D83"/>
<stop offset="0.203125" stop-color="#D51E83"/>
<stop offset="0.210938" stop-color="#D51F83"/>
<stop offset="0.214844" stop-color="#D52083"/>
<stop offset="0.21875" stop-color="#D62182"/>
<stop offset="0.222656" stop-color="#D62282"/>
<stop offset="0.226562" stop-color="#D62382"/>
<stop offset="0.230469" stop-color="#D62382"/>
<stop offset="0.234375" stop-color="#D72481"/>
<stop offset="0.238281" stop-color="#D72581"/>
<stop offset="0.242187" stop-color="#D72681"/>
<stop offset="0.246094" stop-color="#D72781"/>
<stop offset="0.25" stop-color="#D82880"/>
<stop offset="0.257812" stop-color="#D82980"/>
<stop offset="0.261719" stop-color="#D82A80"/>
<stop offset="0.265625" stop-color="#D82B80"/>
<stop offset="0.269531" stop-color="#D82C7F"/>
<stop offset="0.273438" stop-color="#D92C7F"/>
<stop offset="0.277344" stop-color="#D92D7F"/>
<stop offset="0.28125" stop-color="#D92E7F"/>
<stop offset="0.285156" stop-color="#DA2F7E"/>
<stop offset="0.289062" stop-color="#DA307E"/>
<stop offset="0.292969" stop-color="#DA307E"/>
<stop offset="0.296875" stop-color="#DA317E"/>
<stop offset="0.300781" stop-color="#DA327D"/>
<stop offset="0.304687" stop-color="#DB337D"/>
<stop offset="0.308594" stop-color="#DB347D"/>
<stop offset="0.3125" stop-color="#DB357D"/>
<stop offset="0.316406" stop-color="#DB367D"/>
<stop offset="0.320313" stop-color="#DB367D"/>
<stop offset="0.324219" stop-color="#DC377C"/>
<stop offset="0.328125" stop-color="#DC387C"/>
<stop offset="0.332031" stop-color="#DC397C"/>
<stop offset="0.335938" stop-color="#DC3A7C"/>
<stop offset="0.339844" stop-color="#DD3A7B"/>
<stop offset="0.34375" stop-color="#DD3B7B"/>
<stop offset="0.347656" stop-color="#DD3C7B"/>
<stop offset="0.351562" stop-color="#DD3D7B"/>
<stop offset="0.355469" stop-color="#DE3D7A"/>
<stop offset="0.359375" stop-color="#DE3E7A"/>
<stop offset="0.363281" stop-color="#DE3F7A"/>
<stop offset="0.367188" stop-color="#DE407A"/>
<stop offset="0.371094" stop-color="#DE417A"/>
<stop offset="0.375" stop-color="#DE427A"/>
<stop offset="0.378906" stop-color="#DF437A"/>
<stop offset="0.382812" stop-color="#DF4379"/>
<stop offset="0.386719" stop-color="#DF4479"/>
<stop offset="0.390625" stop-color="#DF4579"/>
<stop offset="0.394531" stop-color="#E04679"/>
<stop offset="0.398437" stop-color="#E04778"/>
<stop offset="0.402344" stop-color="#E04778"/>
<stop offset="0.40625" stop-color="#E04878"/>
<stop offset="0.410156" stop-color="#E04978"/>
<stop offset="0.414063" stop-color="#E14A77"/>
<stop offset="0.417969" stop-color="#E14B77"/>
<stop offset="0.421875" stop-color="#E14C77"/>
<stop offset="0.429688" stop-color="#E14C77"/>
<stop offset="0.433594" stop-color="#E14E76"/>
<stop offset="0.4375" stop-color="#E24F76"/>
<stop offset="0.441406" stop-color="#E25076"/>
<stop offset="0.445312" stop-color="#E25076"/>
<stop offset="0.449219" stop-color="#E25176"/>
<stop offset="0.453125" stop-color="#E35275"/>
<stop offset="0.457031" stop-color="#E35375"/>
<stop offset="0.460938" stop-color="#E35475"/>
<stop offset="0.464844" stop-color="#E35475"/>
<stop offset="0.46875" stop-color="#E45574"/>
<stop offset="0.472656" stop-color="#E45674"/>
<stop offset="0.476562" stop-color="#E45774"/>
<stop offset="0.480469" stop-color="#E45874"/>
<stop offset="0.484375" stop-color="#E55973"/>
<stop offset="0.488281" stop-color="#E55A73"/>
<stop offset="0.492187" stop-color="#E55A73"/>
<stop offset="0.496094" stop-color="#E55B73"/>
<stop offset="0.5" stop-color="#E55C73"/>
<stop offset="0.503906" stop-color="#E55D72"/>
<stop offset="0.507812" stop-color="#E65E72"/>
<stop offset="0.515625" stop-color="#E65F72"/>
<stop offset="0.519531" stop-color="#E76071"/>
<stop offset="0.523438" stop-color="#E76171"/>
<stop offset="0.53125" stop-color="#E76171"/>
<stop offset="0.535156" stop-color="#E86370"/>
<stop offset="0.539062" stop-color="#E86470"/>
<stop offset="0.542969" stop-color="#E86570"/>
<stop offset="0.546875" stop-color="#E86670"/>
<stop offset="0.550781" stop-color="#E86670"/>
<stop offset="0.554688" stop-color="#E86770"/>
<stop offset="0.558594" stop-color="#E9686F"/>
<stop offset="0.5625" stop-color="#E9696F"/>
<stop offset="0.566406" stop-color="#E96A6F"/>
<stop offset="0.570313" stop-color="#E96B6F"/>
<stop offset="0.574219" stop-color="#EA6C6E"/>
<stop offset="0.578125" stop-color="#EA6C6E"/>
<stop offset="0.582031" stop-color="#EA6D6E"/>
<stop offset="0.585938" stop-color="#EA6E6E"/>
<stop offset="0.589844" stop-color="#EB6F6D"/>
<stop offset="0.59375" stop-color="#EB706D"/>
<stop offset="0.601562" stop-color="#EB706D"/>
<stop offset="0.605469" stop-color="#EB726D"/>
<stop offset="0.609375" stop-color="#EB736D"/>
<stop offset="0.617188" stop-color="#EC746C"/>
<stop offset="0.621094" stop-color="#EC756C"/>
<stop offset="0.625" stop-color="#EC766C"/>
<stop offset="0.628906" stop-color="#EC776C"/>
<stop offset="0.632812" stop-color="#ED786B"/>
<stop offset="0.636719" stop-color="#ED796B"/>
<stop offset="0.640625" stop-color="#ED796B"/>
<stop offset="0.644531" stop-color="#ED7A6B"/>
<stop offset="0.648438" stop-color="#EE7B6A"/>
<stop offset="0.652344" stop-color="#EE7C6A"/>
<stop offset="0.65625" stop-color="#EE7D6A"/>
<stop offset="0.660156" stop-color="#EE7D6A"/>
<stop offset="0.664062" stop-color="#EE7E6A"/>
<stop offset="0.667969" stop-color="#EE7F6A"/>
<stop offset="0.671875" stop-color="#EF8069"/>
<stop offset="0.675781" stop-color="#EF8169"/>
<stop offset="0.679688" stop-color="#EF8269"/>
<stop offset="0.683594" stop-color="#EF8269"/>
<stop offset="0.6875" stop-color="#F08368"/>
<stop offset="0.691406" stop-color="#F08468"/>
<stop offset="0.695312" stop-color="#F08568"/>
<stop offset="0.699219" stop-color="#F08668"/>
<stop offset="0.703125" stop-color="#F18667"/>
<stop offset="0.707031" stop-color="#F18767"/>
<stop offset="0.710937" stop-color="#F18867"/>
<stop offset="0.714844" stop-color="#F18967"/>
<stop offset="0.71875" stop-color="#F18A67"/>
<stop offset="0.722656" stop-color="#F18A67"/>
<stop offset="0.726562" stop-color="#F28B66"/>
<stop offset="0.730469" stop-color="#F28C66"/>
<stop offset="0.734375" stop-color="#F28D66"/>
<stop offset="0.738281" stop-color="#F38E65"/>
<stop offset="0.742187" stop-color="#F38F65"/>
<stop offset="0.746094" stop-color="#F39065"/>
<stop offset="0.75" stop-color="#F39065"/>
<stop offset="0.753906" stop-color="#F39164"/>
<stop offset="0.757813" stop-color="#F49264"/>
<stop offset="0.761719" stop-color="#F49364"/>
<stop offset="0.765625" stop-color="#F49464"/>
<stop offset="0.769531" stop-color="#F49463"/>
<stop offset="0.773438" stop-color="#F49563"/>
<stop offset="0.777344" stop-color="#F59663"/>
<stop offset="0.78125" stop-color="#F59763"/>
<stop offset="0.789062" stop-color="#F59863"/>
<stop offset="0.792969" stop-color="#F69962"/>
<stop offset="0.796875" stop-color="#F69A62"/>
<stop offset="0.800781" stop-color="#F69B62"/>
<stop offset="0.804688" stop-color="#F69C62"/>
<stop offset="0.808594" stop-color="#F79D61"/>
<stop offset="0.8125" stop-color="#F79D61"/>
<stop offset="0.816406" stop-color="#F79E61"/>
<stop offset="0.820312" stop-color="#F79F61"/>
<stop offset="0.824219" stop-color="#F8A060"/>
<stop offset="0.828125" stop-color="#F8A160"/>
<stop offset="0.832031" stop-color="#F8A160"/>
<stop offset="0.835938" stop-color="#F8A260"/>
<stop offset="0.839844" stop-color="#F8A360"/>
<stop offset="0.84375" stop-color="#F8A460"/>
<stop offset="0.847656" stop-color="#F8A55F"/>
<stop offset="0.851562" stop-color="#F9A65F"/>
<stop offset="0.855469" stop-color="#F9A75F"/>
<stop offset="0.859375" stop-color="#F9A75F"/>
<stop offset="0.863281" stop-color="#F9A85F"/>
<stop offset="0.867187" stop-color="#FAA95E"/>
<stop offset="0.875" stop-color="#FAAA5E"/>
<stop offset="0.878906" stop-color="#FAAB5E"/>
<stop offset="0.882812" stop-color="#FBAC5D"/>
<stop offset="0.886719" stop-color="#FBAD5D"/>
<stop offset="0.890625" stop-color="#FBAE5D"/>
<stop offset="0.894531" stop-color="#FBAE5D"/>
<stop offset="0.898437" stop-color="#FBAF5D"/>
<stop offset="0.902344" stop-color="#FBB05D"/>
<stop offset="0.90625" stop-color="#FCB15C"/>
<stop offset="0.910156" stop-color="#FCB25C"/>
<stop offset="0.914062" stop-color="#FCB35C"/>
<stop offset="0.921875" stop-color="#FCB35C"/>
<stop offset="0.925781" stop-color="#FDB55B"/>
<stop offset="0.929687" stop-color="#FDB65B"/>
<stop offset="0.933594" stop-color="#FDB75B"/>
<stop offset="0.9375" stop-color="#FEB85A"/>
<stop offset="0.945313" stop-color="#FEB85A"/>
<stop offset="0.949219" stop-color="#FEBA5A"/>
<stop offset="0.953125" stop-color="#FEBB5A"/>
<stop offset="0.960938" stop-color="#FFBB59"/>
<stop offset="0.96875" stop-color="#FFBC59"/>
<stop offset="1" stop-color="#FFBD59"/>
</linearGradient>
<linearGradient id="paint2_linear_21_256" x1="26.5137" y1="-6.77241" x2="52.3032" y2="64.8435" gradientUnits="userSpaceOnUse">
<stop stop-color="#D10F87"/>
<stop offset="0.125" stop-color="#D10F87"/>
<stop offset="0.132812" stop-color="#D10F87"/>
<stop offset="0.136719" stop-color="#D21086"/>
<stop offset="0.140625" stop-color="#D21186"/>
<stop offset="0.144531" stop-color="#D21286"/>
<stop offset="0.148438" stop-color="#D21286"/>
<stop offset="0.152344" stop-color="#D21386"/>
<stop offset="0.15625" stop-color="#D21486"/>
<stop offset="0.160156" stop-color="#D31585"/>
<stop offset="0.164062" stop-color="#D31685"/>
<stop offset="0.171875" stop-color="#D31685"/>
<stop offset="0.175781" stop-color="#D31885"/>
<stop offset="0.179687" stop-color="#D41984"/>
<stop offset="0.183594" stop-color="#D41984"/>
<stop offset="0.1875" stop-color="#D41A84"/>
<stop offset="0.191406" stop-color="#D41B84"/>
<stop offset="0.195312" stop-color="#D51C83"/>
<stop offset="0.199219" stop-color="#D51D83"/>
<stop offset="0.203125" stop-color="#D51E83"/>
<stop offset="0.210937" stop-color="#D51F83"/>
<stop offset="0.214844" stop-color="#D52083"/>
<stop offset="0.21875" stop-color="#D62182"/>
<stop offset="0.222656" stop-color="#D62282"/>
<stop offset="0.226562" stop-color="#D62382"/>
<stop offset="0.230469" stop-color="#D62382"/>
<stop offset="0.234375" stop-color="#D72481"/>
<stop offset="0.238281" stop-color="#D72581"/>
<stop offset="0.242187" stop-color="#D72681"/>
<stop offset="0.246094" stop-color="#D72781"/>
<stop offset="0.25" stop-color="#D82880"/>
<stop offset="0.257812" stop-color="#D82980"/>
<stop offset="0.261719" stop-color="#D82A80"/>
<stop offset="0.265625" stop-color="#D82B80"/>
<stop offset="0.269531" stop-color="#D82C7F"/>
<stop offset="0.273438" stop-color="#D92C7F"/>
<stop offset="0.277344" stop-color="#D92D7F"/>
<stop offset="0.28125" stop-color="#D92E7F"/>
<stop offset="0.285156" stop-color="#DA2F7E"/>
<stop offset="0.289062" stop-color="#DA307E"/>
<stop offset="0.292969" stop-color="#DA307E"/>
<stop offset="0.296875" stop-color="#DA317E"/>
<stop offset="0.300781" stop-color="#DA327D"/>
<stop offset="0.304688" stop-color="#DB337D"/>
<stop offset="0.308594" stop-color="#DB347D"/>
<stop offset="0.3125" stop-color="#DB357D"/>
<stop offset="0.316406" stop-color="#DB367D"/>
<stop offset="0.320313" stop-color="#DB367D"/>
<stop offset="0.324219" stop-color="#DC377C"/>
<stop offset="0.328125" stop-color="#DC387C"/>
<stop offset="0.332031" stop-color="#DC397C"/>
<stop offset="0.335938" stop-color="#DC3A7C"/>
<stop offset="0.339844" stop-color="#DD3A7B"/>
<stop offset="0.34375" stop-color="#DD3B7B"/>
<stop offset="0.347656" stop-color="#DD3C7B"/>
<stop offset="0.351563" stop-color="#DD3D7B"/>
<stop offset="0.355469" stop-color="#DE3D7A"/>
<stop offset="0.359375" stop-color="#DE3E7A"/>
<stop offset="0.363281" stop-color="#DE3F7A"/>
<stop offset="0.367188" stop-color="#DE407A"/>
<stop offset="0.371094" stop-color="#DE417A"/>
<stop offset="0.375" stop-color="#DE427A"/>
<stop offset="0.378906" stop-color="#DF437A"/>
<stop offset="0.382813" stop-color="#DF4379"/>
<stop offset="0.386719" stop-color="#DF4479"/>
<stop offset="0.390625" stop-color="#DF4579"/>
<stop offset="0.394531" stop-color="#E04679"/>
<stop offset="0.398438" stop-color="#E04778"/>
<stop offset="0.402344" stop-color="#E04778"/>
<stop offset="0.40625" stop-color="#E04878"/>
<stop offset="0.410156" stop-color="#E04978"/>
<stop offset="0.414063" stop-color="#E14A77"/>
<stop offset="0.417969" stop-color="#E14B77"/>
<stop offset="0.421875" stop-color="#E14C77"/>
<stop offset="0.429688" stop-color="#E14C77"/>
<stop offset="0.433594" stop-color="#E14E76"/>
<stop offset="0.4375" stop-color="#E24F76"/>
<stop offset="0.441406" stop-color="#E25076"/>
<stop offset="0.445312" stop-color="#E25076"/>
<stop offset="0.449219" stop-color="#E25176"/>
<stop offset="0.453125" stop-color="#E35275"/>
<stop offset="0.457031" stop-color="#E35375"/>
<stop offset="0.460938" stop-color="#E35475"/>
<stop offset="0.464844" stop-color="#E35475"/>
<stop offset="0.46875" stop-color="#E45574"/>
<stop offset="0.472656" stop-color="#E45674"/>
<stop offset="0.476562" stop-color="#E45774"/>
<stop offset="0.480469" stop-color="#E45874"/>
<stop offset="0.484375" stop-color="#E55973"/>
<stop offset="0.488281" stop-color="#E55A73"/>
<stop offset="0.492188" stop-color="#E55A73"/>
<stop offset="0.496094" stop-color="#E55B73"/>
<stop offset="0.5" stop-color="#E55C73"/>
<stop offset="0.503906" stop-color="#E55D72"/>
<stop offset="0.507813" stop-color="#E65E72"/>
<stop offset="0.515625" stop-color="#E65F72"/>
<stop offset="0.519531" stop-color="#E76071"/>
<stop offset="0.523438" stop-color="#E76171"/>
<stop offset="0.53125" stop-color="#E76171"/>
<stop offset="0.535156" stop-color="#E86370"/>
<stop offset="0.539062" stop-color="#E86470"/>
<stop offset="0.542969" stop-color="#E86570"/>
<stop offset="0.546875" stop-color="#E86670"/>
<stop offset="0.550781" stop-color="#E86670"/>
<stop offset="0.554688" stop-color="#E86770"/>
<stop offset="0.558594" stop-color="#E9686F"/>
<stop offset="0.5625" stop-color="#E9696F"/>
<stop offset="0.566406" stop-color="#E96A6F"/>
<stop offset="0.570312" stop-color="#E96B6F"/>
<stop offset="0.574219" stop-color="#EA6C6E"/>
<stop offset="0.578125" stop-color="#EA6C6E"/>
<stop offset="0.582031" stop-color="#EA6D6E"/>
<stop offset="0.585938" stop-color="#EA6E6E"/>
<stop offset="0.589844" stop-color="#EB6F6D"/>
<stop offset="0.59375" stop-color="#EB706D"/>
<stop offset="0.601562" stop-color="#EB706D"/>
<stop offset="0.605469" stop-color="#EB726D"/>
<stop offset="0.609375" stop-color="#EB736D"/>
<stop offset="0.617188" stop-color="#EC746C"/>
<stop offset="0.621094" stop-color="#EC756C"/>
<stop offset="0.625" stop-color="#EC766C"/>
<stop offset="0.628906" stop-color="#EC776C"/>
<stop offset="0.632813" stop-color="#ED786B"/>
<stop offset="0.636719" stop-color="#ED796B"/>
<stop offset="0.640625" stop-color="#ED796B"/>
<stop offset="0.644531" stop-color="#ED7A6B"/>
<stop offset="0.648438" stop-color="#EE7B6A"/>
<stop offset="0.652344" stop-color="#EE7C6A"/>
<stop offset="0.65625" stop-color="#EE7D6A"/>
<stop offset="0.660156" stop-color="#EE7D6A"/>
<stop offset="0.664062" stop-color="#EE7E6A"/>
<stop offset="0.667969" stop-color="#EE7F6A"/>
<stop offset="0.671875" stop-color="#EF8069"/>
<stop offset="0.675781" stop-color="#EF8169"/>
<stop offset="0.679688" stop-color="#EF8269"/>
<stop offset="0.683594" stop-color="#EF8269"/>
<stop offset="0.6875" stop-color="#F08368"/>
<stop offset="0.691406" stop-color="#F08468"/>
<stop offset="0.695312" stop-color="#F08568"/>
<stop offset="0.699219" stop-color="#F08668"/>
<stop offset="0.703125" stop-color="#F18667"/>
<stop offset="0.707031" stop-color="#F18767"/>
<stop offset="0.710938" stop-color="#F18867"/>
<stop offset="0.714844" stop-color="#F18967"/>
<stop offset="0.71875" stop-color="#F18A67"/>
<stop offset="0.722656" stop-color="#F18A67"/>
<stop offset="0.726563" stop-color="#F28B66"/>
<stop offset="0.730469" stop-color="#F28C66"/>
<stop offset="0.734375" stop-color="#F28D66"/>
<stop offset="0.738281" stop-color="#F38E65"/>
<stop offset="0.742188" stop-color="#F38F65"/>
<stop offset="0.746094" stop-color="#F39065"/>
<stop offset="0.75" stop-color="#F39065"/>
<stop offset="0.753906" stop-color="#F39164"/>
<stop offset="0.757813" stop-color="#F49264"/>
<stop offset="0.761719" stop-color="#F49364"/>
<stop offset="0.765625" stop-color="#F49464"/>
<stop offset="0.769531" stop-color="#F49463"/>
<stop offset="0.773438" stop-color="#F49563"/>
<stop offset="0.777344" stop-color="#F59663"/>
<stop offset="0.78125" stop-color="#F59763"/>
<stop offset="0.789063" stop-color="#F59863"/>
<stop offset="0.792969" stop-color="#F69962"/>
<stop offset="0.796875" stop-color="#F69A62"/>
<stop offset="0.800781" stop-color="#F69B62"/>
<stop offset="0.804688" stop-color="#F69C62"/>
<stop offset="0.808594" stop-color="#F79D61"/>
<stop offset="0.8125" stop-color="#F79D61"/>
<stop offset="0.816406" stop-color="#F79E61"/>
<stop offset="0.820312" stop-color="#F79F61"/>
<stop offset="0.824219" stop-color="#F8A060"/>
<stop offset="0.828125" stop-color="#F8A160"/>
<stop offset="0.832031" stop-color="#F8A160"/>
<stop offset="0.835938" stop-color="#F8A260"/>
<stop offset="0.839844" stop-color="#F8A360"/>
<stop offset="0.84375" stop-color="#F8A460"/>
<stop offset="0.847656" stop-color="#F8A55F"/>
<stop offset="0.851563" stop-color="#F9A65F"/>
<stop offset="0.855469" stop-color="#F9A75F"/>
<stop offset="0.859375" stop-color="#F9A75F"/>
<stop offset="0.863281" stop-color="#F9A85F"/>
<stop offset="0.867188" stop-color="#FAA95E"/>
<stop offset="0.875" stop-color="#FAAA5E"/>
<stop offset="0.878906" stop-color="#FAAB5E"/>
<stop offset="0.882813" stop-color="#FBAC5D"/>
<stop offset="0.886719" stop-color="#FBAD5D"/>
<stop offset="0.890625" stop-color="#FBAE5D"/>
<stop offset="0.894531" stop-color="#FBAE5D"/>
<stop offset="0.898438" stop-color="#FBAF5D"/>
<stop offset="0.902344" stop-color="#FBB05D"/>
<stop offset="0.90625" stop-color="#FCB15C"/>
<stop offset="0.910156" stop-color="#FCB25C"/>
<stop offset="0.914063" stop-color="#FCB35C"/>
<stop offset="0.921875" stop-color="#FCB45C"/>
<stop offset="0.925781" stop-color="#FDB55B"/>
<stop offset="0.929688" stop-color="#FDB65B"/>
<stop offset="0.933594" stop-color="#FDB75B"/>
<stop offset="0.9375" stop-color="#FEB85A"/>
<stop offset="0.945313" stop-color="#FEB85A"/>
<stop offset="0.949219" stop-color="#FEBA5A"/>
<stop offset="0.953125" stop-color="#FEBB5A"/>
<stop offset="0.960938" stop-color="#FFBB59"/>
<stop offset="0.96875" stop-color="#FFBC59"/>
<stop offset="1" stop-color="#FFBD59"/>
</linearGradient>
<linearGradient id="paint3_linear_21_256" x1="27.1237" y1="-1.85046" x2="49.5842" y2="60.5106" gradientUnits="userSpaceOnUse">
<stop stop-color="#D10F87"/>
<stop offset="0.125" stop-color="#D10F87"/>
<stop offset="0.128906" stop-color="#D21086"/>
<stop offset="0.132813" stop-color="#D21186"/>
<stop offset="0.136719" stop-color="#D21286"/>
<stop offset="0.140625" stop-color="#D21386"/>
<stop offset="0.144531" stop-color="#D21486"/>
<stop offset="0.148438" stop-color="#D31585"/>
<stop offset="0.152344" stop-color="#D31585"/>
<stop offset="0.15625" stop-color="#D31685"/>
<stop offset="0.160156" stop-color="#D31785"/>
<stop offset="0.164062" stop-color="#D31785"/>
<stop offset="0.167969" stop-color="#D31885"/>
<stop offset="0.171875" stop-color="#D41984"/>
<stop offset="0.179688" stop-color="#D41A84"/>
<stop offset="0.183594" stop-color="#D41B84"/>
<stop offset="0.1875" stop-color="#D51C83"/>
<stop offset="0.191406" stop-color="#D51D83"/>
<stop offset="0.195312" stop-color="#D51E83"/>
<stop offset="0.203125" stop-color="#D51F83"/>
<stop offset="0.207031" stop-color="#D62082"/>
<stop offset="0.210938" stop-color="#D62182"/>
<stop offset="0.214844" stop-color="#D62282"/>
<stop offset="0.21875" stop-color="#D62382"/>
<stop offset="0.222656" stop-color="#D62382"/>
<stop offset="0.226563" stop-color="#D72481"/>
<stop offset="0.230469" stop-color="#D72581"/>
<stop offset="0.234375" stop-color="#D72681"/>
<stop offset="0.238281" stop-color="#D72781"/>
<stop offset="0.242188" stop-color="#D82880"/>
<stop offset="0.25" stop-color="#D82880"/>
<stop offset="0.253906" stop-color="#D82A80"/>
<stop offset="0.257812" stop-color="#D82B80"/>
<stop offset="0.261719" stop-color="#D82B7F"/>
<stop offset="0.265625" stop-color="#D92C7F"/>
<stop offset="0.269531" stop-color="#D92D7F"/>
<stop offset="0.273438" stop-color="#D92E7F"/>
<stop offset="0.277344" stop-color="#DA2F7E"/>
<stop offset="0.28125" stop-color="#DA307E"/>
<stop offset="0.285156" stop-color="#DA307E"/>
<stop offset="0.289062" stop-color="#DA317E"/>
<stop offset="0.292969" stop-color="#DA327E"/>
<stop offset="0.296875" stop-color="#DA327E"/>
<stop offset="0.300781" stop-color="#DB337D"/>
<stop offset="0.304688" stop-color="#DB347D"/>
<stop offset="0.308594" stop-color="#DB357D"/>
<stop offset="0.3125" stop-color="#DB367D"/>
<stop offset="0.316406" stop-color="#DC367C"/>
<stop offset="0.320312" stop-color="#DC377C"/>
<stop offset="0.324219" stop-color="#DC387C"/>
<stop offset="0.328125" stop-color="#DC397C"/>
<stop offset="0.332031" stop-color="#DD3A7B"/>
<stop offset="0.335938" stop-color="#DD3A7B"/>
<stop offset="0.339844" stop-color="#DD3B7B"/>
<stop offset="0.34375" stop-color="#DD3C7B"/>
<stop offset="0.347656" stop-color="#DD3D7B"/>
<stop offset="0.351562" stop-color="#DD3E7B"/>
<stop offset="0.355469" stop-color="#DE3F7A"/>
<stop offset="0.359375" stop-color="#DE3F7A"/>
<stop offset="0.363281" stop-color="#DE407A"/>
<stop offset="0.367188" stop-color="#DE417A"/>
<stop offset="0.371094" stop-color="#DF427A"/>
<stop offset="0.375" stop-color="#DF4379"/>
<stop offset="0.382812" stop-color="#DF4379"/>
<stop offset="0.386719" stop-color="#DF4579"/>
<stop offset="0.390625" stop-color="#E04678"/>
<stop offset="0.394531" stop-color="#E04678"/>
<stop offset="0.398438" stop-color="#E04778"/>
<stop offset="0.402344" stop-color="#E04878"/>
<stop offset="0.40625" stop-color="#E04978"/>
<stop offset="0.410156" stop-color="#E04A78"/>
<stop offset="0.414062" stop-color="#E14B77"/>
<stop offset="0.417969" stop-color="#E14B77"/>
<stop offset="0.421875" stop-color="#E14C77"/>
<stop offset="0.425781" stop-color="#E14D77"/>
<stop offset="0.429688" stop-color="#E14D76"/>
<stop offset="0.433594" stop-color="#E24E76"/>
<stop offset="0.4375" stop-color="#E24F76"/>
<stop offset="0.441406" stop-color="#E25076"/>
<stop offset="0.445312" stop-color="#E25176"/>
<stop offset="0.449219" stop-color="#E35175"/>
<stop offset="0.453125" stop-color="#E35275"/>
<stop offset="0.457031" stop-color="#E35375"/>
<stop offset="0.460938" stop-color="#E35475"/>
<stop offset="0.464844" stop-color="#E35575"/>
<stop offset="0.46875" stop-color="#E45574"/>
<stop offset="0.472656" stop-color="#E45674"/>
<stop offset="0.476562" stop-color="#E45774"/>
<stop offset="0.480469" stop-color="#E45874"/>
<stop offset="0.484375" stop-color="#E55973"/>
<stop offset="0.488281" stop-color="#E55A73"/>
<stop offset="0.492188" stop-color="#E55A73"/>
<stop offset="0.496094" stop-color="#E55B73"/>
<stop offset="0.5" stop-color="#E55C73"/>
<stop offset="0.503906" stop-color="#E55D72"/>
<stop offset="0.507812" stop-color="#E65E72"/>
<stop offset="0.515625" stop-color="#E65E72"/>
<stop offset="0.519531" stop-color="#E66072"/>
<stop offset="0.523437" stop-color="#E76171"/>
<stop offset="0.527344" stop-color="#E76171"/>
<stop offset="0.53125" stop-color="#E76271"/>
<stop offset="0.535156" stop-color="#E76371"/>
<stop offset="0.539062" stop-color="#E86470"/>
<stop offset="0.542969" stop-color="#E86570"/>
<stop offset="0.546875" stop-color="#E86670"/>
<stop offset="0.550781" stop-color="#E86670"/>
<stop offset="0.554687" stop-color="#E86770"/>
<stop offset="0.558594" stop-color="#E9686F"/>
<stop offset="0.5625" stop-color="#E9686F"/>
<stop offset="0.566406" stop-color="#E96A6F"/>
<stop offset="0.570312" stop-color="#E96B6F"/>
<stop offset="0.578125" stop-color="#E96B6F"/>
<stop offset="0.582031" stop-color="#EA6C6E"/>
<stop offset="0.585937" stop-color="#EA6D6E"/>
<stop offset="0.589844" stop-color="#EA6E6E"/>
<stop offset="0.59375" stop-color="#EA6F6E"/>
<stop offset="0.601562" stop-color="#EB706D"/>
<stop offset="0.605469" stop-color="#EB716D"/>
<stop offset="0.609375" stop-color="#EB726D"/>
<stop offset="0.613281" stop-color="#EB736D"/>
<stop offset="0.617188" stop-color="#EC746C"/>
<stop offset="0.621094" stop-color="#EC756C"/>
<stop offset="0.625" stop-color="#EC756C"/>
<stop offset="0.628906" stop-color="#EC766C"/>
<stop offset="0.632812" stop-color="#ED776B"/>
<stop offset="0.636719" stop-color="#ED786B"/>
<stop offset="0.640625" stop-color="#ED796B"/>
<stop offset="0.648438" stop-color="#ED796B"/>
<stop offset="0.652344" stop-color="#ED7B6B"/>
<stop offset="0.65625" stop-color="#EE7C6A"/>
<stop offset="0.660156" stop-color="#EE7C6A"/>
<stop offset="0.664063" stop-color="#EE7D6A"/>
<stop offset="0.667969" stop-color="#EE7E6A"/>
<stop offset="0.671875" stop-color="#EF7F69"/>
<stop offset="0.675781" stop-color="#EF8069"/>
<stop offset="0.679688" stop-color="#EF8169"/>
<stop offset="0.683594" stop-color="#EF8169"/>
<stop offset="0.6875" stop-color="#EF8269"/>
<stop offset="0.691406" stop-color="#F08368"/>
<stop offset="0.695313" stop-color="#F08468"/>
<stop offset="0.699219" stop-color="#F08568"/>
<stop offset="0.703125" stop-color="#F08668"/>
<stop offset="0.707031" stop-color="#F08668"/>
<stop offset="0.710937" stop-color="#F18667"/>
<stop offset="0.714844" stop-color="#F18767"/>
<stop offset="0.71875" stop-color="#F18867"/>
<stop offset="0.722656" stop-color="#F18967"/>
<stop offset="0.726562" stop-color="#F18A67"/>
<stop offset="0.733843" stop-color="#F28B66"/>
<stop offset="0.734375" stop-color="#F28B66"/>
<stop offset="0.738281" stop-color="#F28C66"/>
<stop offset="0.742187" stop-color="#F28D66"/>
<stop offset="0.746094" stop-color="#F38E65"/>
<stop offset="0.75" stop-color="#F38F65"/>
<stop offset="0.753906" stop-color="#F39065"/>
<stop offset="0.757812" stop-color="#F39065"/>
<stop offset="0.761719" stop-color="#F49164"/>
<stop offset="0.765625" stop-color="#F49264"/>
<stop offset="0.769531" stop-color="#F49364"/>
<stop offset="0.773437" stop-color="#F49464"/>
<stop offset="0.777344" stop-color="#F49463"/>
<stop offset="0.78125" stop-color="#F49563"/>
<stop offset="0.785156" stop-color="#F59663"/>
<stop offset="0.789062" stop-color="#F59763"/>
<stop offset="0.792969" stop-color="#F59763"/>
<stop offset="0.796875" stop-color="#F59863"/>
<stop offset="0.800781" stop-color="#F69962"/>
<stop offset="0.804688" stop-color="#F69A62"/>
<stop offset="0.808594" stop-color="#F69B62"/>
<stop offset="0.8125" stop-color="#F69C62"/>
<stop offset="0.816406" stop-color="#F69C62"/>
<stop offset="0.820312" stop-color="#F79D61"/>
<stop offset="0.824219" stop-color="#F79E61"/>
<stop offset="0.828125" stop-color="#F79F61"/>
<stop offset="0.832031" stop-color="#F7A061"/>
<stop offset="0.835938" stop-color="#F8A060"/>
<stop offset="0.84375" stop-color="#F8A160"/>
<stop offset="0.847656" stop-color="#F8A260"/>
<stop offset="0.851563" stop-color="#F8A360"/>
<stop offset="0.855469" stop-color="#F8A45F"/>
<stop offset="0.859375" stop-color="#F9A55F"/>
<stop offset="0.863281" stop-color="#F9A65F"/>
<stop offset="0.867188" stop-color="#F9A65F"/>
<stop offset="0.871094" stop-color="#F9A75F"/>
<stop offset="0.875" stop-color="#F9A85F"/>
<stop offset="0.878906" stop-color="#FAA95E"/>
<stop offset="0.882813" stop-color="#FAAA5E"/>
<stop offset="0.886719" stop-color="#FAAB5E"/>
<stop offset="0.890625" stop-color="#FAAB5E"/>
<stop offset="0.894531" stop-color="#FAAC5E"/>
<stop offset="0.898438" stop-color="#FBAD5D"/>
<stop offset="0.902344" stop-color="#FBAE5D"/>
<stop offset="0.90625" stop-color="#FBAF5D"/>
<stop offset="0.910156" stop-color="#FBAF5D"/>
<stop offset="0.914062" stop-color="#FCB05C"/>
<stop offset="0.917969" stop-color="#FCB15C"/>
<stop offset="0.921875" stop-color="#FCB25C"/>
<stop offset="0.925781" stop-color="#FCB25C"/>
<stop offset="0.929687" stop-color="#FCB35C"/>
<stop offset="0.933594" stop-color="#FCB45C"/>
<stop offset="0.9375" stop-color="#FDB55B"/>
<stop offset="0.941406" stop-color="#FDB65B"/>
<stop offset="0.945312" stop-color="#FDB75B"/>
<stop offset="0.949219" stop-color="#FDB75B"/>
<stop offset="0.953125" stop-color="#FEB85A"/>
<stop offset="0.957031" stop-color="#FEB95A"/>
<stop offset="0.960937" stop-color="#FEBA5A"/>
<stop offset="0.964844" stop-color="#FEBB5A"/>
<stop offset="0.96875" stop-color="#FFBB59"/>
<stop offset="0.976562" stop-color="#FFBC59"/>
<stop offset="0.984375" stop-color="#FFBD59"/>
<stop offset="1" stop-color="#FFBD59"/>
</linearGradient>
<clipPath id="clip0_21_256">
<rect width="60" height="60" fill="white" transform="translate(0 2.5)"/>
</clipPath>
</defs>
</svg>
